M48
;GenerationSoftware,Autodesk,EAGLE,9.6.2*%
;CreationDate,2020-12-01T03:29:26Z*%
FMAT,2
ICI,OFF
METRIC,TZ,000.000
T5C0.813
T4C0.900
T3C1.016
T2C1.118
T1C2.100
%
G90
M71
T1
X36000Y40000
X57000Y40000
X57000Y56000
X36000Y56000
T2
X41275Y53880
X41275Y51340
X41275Y48800
X41275Y46260
X48895Y46260
X48895Y48800
X48895Y51340
X48895Y53880
T3
X40640Y40640
X43180Y40640
X45720Y40640
X48260Y40640
X37465Y50800
X37465Y48260
X37465Y45720
X53340Y40640
X50800Y40640
T4
X55880Y48260
X55880Y50800
X55880Y45720
T5
X53518Y56540
X50978Y56540
X53340Y46990
X53340Y54610
X51435Y48260
X51435Y53340
M30