G04 EAGLE Gerber RS-274X export*
G75*
%MOMM*%
%FSLAX34Y34*%
%LPD*%
%INBottom Copper*%
%IPPOS*%
%AMOC8*
5,1,8,0,0,1.08239X$1,22.5*%
G01*
%ADD10C,0.203200*%
%ADD11C,0.076200*%
%ADD12R,1.676400X1.676400*%
%ADD13C,1.676400*%
%ADD14P,1.814519X8X202.500000*%
%ADD15P,1.814519X8X112.500000*%
%ADD16P,1.429621X8X112.500000*%
%ADD17C,1.524000*%
%ADD18C,0.304800*%
%ADD19C,0.152400*%


D10*
X427228Y468299D02*
X434340Y468299D01*
X434340Y473633D01*
X434338Y473715D01*
X434332Y473797D01*
X434323Y473879D01*
X434310Y473960D01*
X434293Y474040D01*
X434272Y474120D01*
X434248Y474198D01*
X434220Y474275D01*
X434189Y474351D01*
X434154Y474426D01*
X434115Y474498D01*
X434074Y474569D01*
X434029Y474638D01*
X433981Y474704D01*
X433930Y474769D01*
X433876Y474831D01*
X433819Y474890D01*
X433760Y474947D01*
X433698Y475001D01*
X433633Y475052D01*
X433567Y475100D01*
X433498Y475145D01*
X433427Y475186D01*
X433355Y475225D01*
X433280Y475260D01*
X433204Y475291D01*
X433127Y475319D01*
X433049Y475343D01*
X432969Y475364D01*
X432889Y475381D01*
X432808Y475394D01*
X432726Y475403D01*
X432644Y475409D01*
X432562Y475411D01*
X427228Y475411D01*
X427228Y471855D02*
X434340Y471855D01*
X431377Y483281D02*
X431377Y485948D01*
X431376Y483281D02*
X431374Y483192D01*
X431368Y483103D01*
X431359Y483014D01*
X431345Y482926D01*
X431328Y482838D01*
X431307Y482751D01*
X431283Y482666D01*
X431254Y482581D01*
X431222Y482498D01*
X431187Y482416D01*
X431148Y482335D01*
X431106Y482257D01*
X431060Y482180D01*
X431011Y482106D01*
X430959Y482033D01*
X430903Y481963D01*
X430845Y481895D01*
X430784Y481830D01*
X430720Y481768D01*
X430654Y481708D01*
X430585Y481652D01*
X430514Y481598D01*
X430440Y481547D01*
X430365Y481500D01*
X430287Y481456D01*
X430208Y481415D01*
X430127Y481378D01*
X430044Y481344D01*
X429960Y481314D01*
X429875Y481288D01*
X429788Y481265D01*
X429701Y481246D01*
X429613Y481230D01*
X429525Y481219D01*
X429436Y481211D01*
X429347Y481207D01*
X429257Y481207D01*
X429168Y481211D01*
X429079Y481219D01*
X428991Y481230D01*
X428903Y481246D01*
X428816Y481265D01*
X428729Y481288D01*
X428644Y481314D01*
X428560Y481344D01*
X428477Y481378D01*
X428396Y481415D01*
X428317Y481456D01*
X428239Y481500D01*
X428164Y481547D01*
X428090Y481598D01*
X428019Y481652D01*
X427950Y481708D01*
X427884Y481768D01*
X427820Y481830D01*
X427759Y481895D01*
X427701Y481963D01*
X427645Y482033D01*
X427593Y482106D01*
X427544Y482180D01*
X427498Y482257D01*
X427456Y482335D01*
X427417Y482416D01*
X427382Y482498D01*
X427350Y482581D01*
X427321Y482666D01*
X427297Y482751D01*
X427276Y482838D01*
X427259Y482926D01*
X427245Y483014D01*
X427236Y483103D01*
X427230Y483192D01*
X427228Y483281D01*
X427228Y485948D01*
X432562Y485948D01*
X432644Y485946D01*
X432726Y485940D01*
X432808Y485931D01*
X432889Y485918D01*
X432969Y485901D01*
X433049Y485880D01*
X433127Y485856D01*
X433204Y485828D01*
X433280Y485797D01*
X433355Y485762D01*
X433427Y485723D01*
X433498Y485682D01*
X433567Y485637D01*
X433633Y485589D01*
X433698Y485538D01*
X433760Y485484D01*
X433819Y485427D01*
X433876Y485368D01*
X433930Y485306D01*
X433981Y485241D01*
X434029Y485175D01*
X434074Y485106D01*
X434115Y485035D01*
X434154Y484963D01*
X434189Y484888D01*
X434220Y484812D01*
X434248Y484735D01*
X434272Y484657D01*
X434293Y484577D01*
X434310Y484497D01*
X434323Y484416D01*
X434332Y484334D01*
X434338Y484252D01*
X434340Y484170D01*
X434340Y481800D01*
X431377Y492471D02*
X430191Y495435D01*
X431376Y492471D02*
X431407Y492400D01*
X431441Y492330D01*
X431478Y492262D01*
X431519Y492197D01*
X431564Y492133D01*
X431611Y492072D01*
X431662Y492013D01*
X431715Y491956D01*
X431771Y491903D01*
X431830Y491852D01*
X431891Y491805D01*
X431955Y491760D01*
X432020Y491719D01*
X432088Y491681D01*
X432158Y491647D01*
X432229Y491616D01*
X432301Y491589D01*
X432375Y491566D01*
X432450Y491546D01*
X432526Y491530D01*
X432603Y491518D01*
X432680Y491510D01*
X432757Y491506D01*
X432835Y491505D01*
X432912Y491509D01*
X432990Y491516D01*
X433066Y491528D01*
X433142Y491543D01*
X433218Y491562D01*
X433292Y491585D01*
X433365Y491611D01*
X433436Y491641D01*
X433506Y491675D01*
X433574Y491712D01*
X433640Y491753D01*
X433704Y491797D01*
X433766Y491844D01*
X433825Y491894D01*
X433881Y491947D01*
X433935Y492003D01*
X433986Y492061D01*
X434034Y492122D01*
X434079Y492185D01*
X434121Y492251D01*
X434159Y492318D01*
X434194Y492388D01*
X434225Y492459D01*
X434253Y492531D01*
X434276Y492605D01*
X434297Y492680D01*
X434313Y492755D01*
X434326Y492832D01*
X434334Y492909D01*
X434339Y492986D01*
X434340Y493064D01*
X434336Y493226D01*
X434328Y493388D01*
X434316Y493549D01*
X434300Y493710D01*
X434280Y493871D01*
X434257Y494031D01*
X434229Y494190D01*
X434198Y494349D01*
X434163Y494507D01*
X434124Y494664D01*
X434081Y494820D01*
X434035Y494975D01*
X433985Y495129D01*
X433931Y495282D01*
X433873Y495433D01*
X433812Y495583D01*
X433748Y495731D01*
X430192Y495435D02*
X430161Y495506D01*
X430127Y495576D01*
X430090Y495644D01*
X430049Y495709D01*
X430004Y495773D01*
X429957Y495834D01*
X429906Y495893D01*
X429853Y495950D01*
X429797Y496003D01*
X429738Y496054D01*
X429677Y496101D01*
X429613Y496146D01*
X429548Y496187D01*
X429480Y496225D01*
X429410Y496259D01*
X429339Y496290D01*
X429267Y496317D01*
X429193Y496340D01*
X429118Y496360D01*
X429042Y496376D01*
X428965Y496388D01*
X428888Y496396D01*
X428811Y496400D01*
X428733Y496401D01*
X428656Y496397D01*
X428578Y496390D01*
X428502Y496378D01*
X428426Y496363D01*
X428350Y496344D01*
X428276Y496321D01*
X428203Y496295D01*
X428132Y496265D01*
X428062Y496231D01*
X427994Y496194D01*
X427928Y496153D01*
X427864Y496109D01*
X427802Y496062D01*
X427743Y496012D01*
X427687Y495959D01*
X427633Y495903D01*
X427582Y495845D01*
X427534Y495784D01*
X427489Y495721D01*
X427447Y495655D01*
X427409Y495588D01*
X427374Y495518D01*
X427343Y495448D01*
X427315Y495375D01*
X427292Y495301D01*
X427271Y495226D01*
X427255Y495151D01*
X427242Y495074D01*
X427234Y494997D01*
X427229Y494920D01*
X427228Y494842D01*
X427228Y494841D02*
X427234Y494604D01*
X427246Y494366D01*
X427263Y494129D01*
X427287Y493893D01*
X427315Y493657D01*
X427349Y493421D01*
X427389Y493187D01*
X427434Y492954D01*
X427485Y492721D01*
X427541Y492490D01*
X427603Y492261D01*
X427670Y492033D01*
X427743Y491806D01*
X427821Y491582D01*
X427228Y502072D02*
X437896Y502072D01*
X434340Y506814D02*
X430784Y502072D01*
X432266Y504147D02*
X427228Y506814D01*
X427228Y512199D02*
X437896Y512199D01*
X437896Y515162D01*
X437894Y515269D01*
X437888Y515376D01*
X437879Y515482D01*
X437865Y515588D01*
X437848Y515694D01*
X437827Y515799D01*
X437802Y515903D01*
X437773Y516006D01*
X437741Y516108D01*
X437705Y516209D01*
X437665Y516308D01*
X437622Y516406D01*
X437575Y516502D01*
X437525Y516597D01*
X437472Y516690D01*
X437415Y516780D01*
X437355Y516869D01*
X437292Y516955D01*
X437226Y517039D01*
X437156Y517121D01*
X437084Y517200D01*
X437009Y517276D01*
X436931Y517350D01*
X436851Y517420D01*
X436768Y517488D01*
X436683Y517553D01*
X436596Y517614D01*
X436506Y517673D01*
X436415Y517728D01*
X436321Y517780D01*
X436225Y517828D01*
X436128Y517873D01*
X436030Y517915D01*
X435930Y517952D01*
X435828Y517987D01*
X435726Y518017D01*
X435622Y518044D01*
X435518Y518067D01*
X435412Y518086D01*
X435306Y518101D01*
X435200Y518113D01*
X435093Y518121D01*
X434986Y518125D01*
X434880Y518125D01*
X434773Y518121D01*
X434666Y518113D01*
X434560Y518101D01*
X434454Y518086D01*
X434348Y518067D01*
X434244Y518044D01*
X434140Y518017D01*
X434038Y517987D01*
X433936Y517952D01*
X433836Y517915D01*
X433738Y517873D01*
X433641Y517828D01*
X433545Y517780D01*
X433452Y517728D01*
X433360Y517673D01*
X433270Y517614D01*
X433183Y517553D01*
X433098Y517488D01*
X433015Y517420D01*
X432935Y517350D01*
X432857Y517276D01*
X432782Y517200D01*
X432710Y517121D01*
X432640Y517039D01*
X432574Y516955D01*
X432511Y516869D01*
X432451Y516780D01*
X432394Y516690D01*
X432341Y516597D01*
X432291Y516502D01*
X432244Y516406D01*
X432201Y516308D01*
X432161Y516209D01*
X432125Y516108D01*
X432093Y516006D01*
X432064Y515903D01*
X432039Y515799D01*
X432018Y515694D01*
X432001Y515588D01*
X431987Y515482D01*
X431978Y515376D01*
X431972Y515269D01*
X431970Y515162D01*
X431969Y515162D02*
X431969Y512199D01*
X429006Y522858D02*
X437896Y522858D01*
X429006Y522858D02*
X428924Y522860D01*
X428842Y522866D01*
X428760Y522875D01*
X428679Y522888D01*
X428599Y522905D01*
X428519Y522926D01*
X428441Y522950D01*
X428364Y522978D01*
X428288Y523009D01*
X428213Y523044D01*
X428141Y523083D01*
X428070Y523124D01*
X428001Y523169D01*
X427935Y523217D01*
X427870Y523268D01*
X427808Y523322D01*
X427749Y523379D01*
X427692Y523438D01*
X427638Y523500D01*
X427587Y523565D01*
X427539Y523631D01*
X427494Y523700D01*
X427453Y523771D01*
X427414Y523843D01*
X427379Y523918D01*
X427348Y523994D01*
X427320Y524071D01*
X427296Y524149D01*
X427275Y524229D01*
X427258Y524309D01*
X427245Y524390D01*
X427236Y524472D01*
X427230Y524554D01*
X427228Y524636D01*
X431377Y530906D02*
X431377Y533573D01*
X431376Y530906D02*
X431374Y530817D01*
X431368Y530728D01*
X431359Y530639D01*
X431345Y530551D01*
X431328Y530463D01*
X431307Y530376D01*
X431283Y530291D01*
X431254Y530206D01*
X431222Y530123D01*
X431187Y530041D01*
X431148Y529960D01*
X431106Y529882D01*
X431060Y529805D01*
X431011Y529731D01*
X430959Y529658D01*
X430903Y529588D01*
X430845Y529520D01*
X430784Y529455D01*
X430720Y529393D01*
X430654Y529333D01*
X430585Y529277D01*
X430514Y529223D01*
X430440Y529172D01*
X430365Y529125D01*
X430287Y529081D01*
X430208Y529040D01*
X430127Y529003D01*
X430044Y528969D01*
X429960Y528939D01*
X429875Y528913D01*
X429788Y528890D01*
X429701Y528871D01*
X429613Y528855D01*
X429525Y528844D01*
X429436Y528836D01*
X429347Y528832D01*
X429257Y528832D01*
X429168Y528836D01*
X429079Y528844D01*
X428991Y528855D01*
X428903Y528871D01*
X428816Y528890D01*
X428729Y528913D01*
X428644Y528939D01*
X428560Y528969D01*
X428477Y529003D01*
X428396Y529040D01*
X428317Y529081D01*
X428239Y529125D01*
X428164Y529172D01*
X428090Y529223D01*
X428019Y529277D01*
X427950Y529333D01*
X427884Y529393D01*
X427820Y529455D01*
X427759Y529520D01*
X427701Y529588D01*
X427645Y529658D01*
X427593Y529731D01*
X427544Y529805D01*
X427498Y529882D01*
X427456Y529960D01*
X427417Y530041D01*
X427382Y530123D01*
X427350Y530206D01*
X427321Y530291D01*
X427297Y530376D01*
X427276Y530463D01*
X427259Y530551D01*
X427245Y530639D01*
X427236Y530728D01*
X427230Y530817D01*
X427228Y530906D01*
X427228Y533573D01*
X432562Y533573D01*
X432644Y533571D01*
X432726Y533565D01*
X432808Y533556D01*
X432889Y533543D01*
X432969Y533526D01*
X433049Y533505D01*
X433127Y533481D01*
X433204Y533453D01*
X433280Y533422D01*
X433355Y533387D01*
X433427Y533348D01*
X433498Y533307D01*
X433567Y533262D01*
X433633Y533214D01*
X433698Y533163D01*
X433760Y533109D01*
X433819Y533052D01*
X433876Y532993D01*
X433930Y532931D01*
X433981Y532866D01*
X434029Y532800D01*
X434074Y532731D01*
X434115Y532660D01*
X434154Y532588D01*
X434189Y532513D01*
X434220Y532437D01*
X434248Y532360D01*
X434272Y532282D01*
X434293Y532202D01*
X434310Y532122D01*
X434323Y532041D01*
X434332Y531959D01*
X434338Y531877D01*
X434340Y531795D01*
X434340Y529424D01*
X434340Y539588D02*
X427228Y539588D01*
X434340Y539588D02*
X434340Y542551D01*
X434338Y542633D01*
X434332Y542715D01*
X434323Y542797D01*
X434310Y542878D01*
X434293Y542958D01*
X434272Y543038D01*
X434248Y543116D01*
X434220Y543193D01*
X434189Y543269D01*
X434154Y543344D01*
X434115Y543416D01*
X434074Y543487D01*
X434029Y543556D01*
X433981Y543622D01*
X433930Y543687D01*
X433876Y543749D01*
X433819Y543808D01*
X433760Y543865D01*
X433698Y543919D01*
X433633Y543970D01*
X433567Y544018D01*
X433498Y544063D01*
X433427Y544104D01*
X433355Y544143D01*
X433280Y544178D01*
X433204Y544209D01*
X433127Y544237D01*
X433049Y544261D01*
X432969Y544282D01*
X432889Y544299D01*
X432808Y544312D01*
X432726Y544321D01*
X432644Y544327D01*
X432562Y544329D01*
X427228Y544329D01*
X427228Y552365D02*
X427228Y554736D01*
X427228Y552365D02*
X427230Y552270D01*
X427236Y552174D01*
X427245Y552079D01*
X427259Y551985D01*
X427276Y551891D01*
X427297Y551798D01*
X427322Y551705D01*
X427350Y551614D01*
X427382Y551524D01*
X427418Y551436D01*
X427457Y551349D01*
X427500Y551263D01*
X427546Y551180D01*
X427595Y551098D01*
X427648Y551018D01*
X427704Y550941D01*
X427762Y550865D01*
X427824Y550793D01*
X427889Y550723D01*
X427957Y550655D01*
X428027Y550590D01*
X428099Y550528D01*
X428175Y550470D01*
X428252Y550414D01*
X428332Y550361D01*
X428414Y550312D01*
X428497Y550266D01*
X428583Y550223D01*
X428670Y550184D01*
X428758Y550148D01*
X428848Y550116D01*
X428939Y550088D01*
X429032Y550063D01*
X429125Y550042D01*
X429219Y550025D01*
X429313Y550011D01*
X429408Y550002D01*
X429504Y549996D01*
X429599Y549994D01*
X429599Y549995D02*
X435525Y549995D01*
X435525Y549994D02*
X435620Y549996D01*
X435716Y550002D01*
X435811Y550011D01*
X435905Y550025D01*
X435999Y550042D01*
X436092Y550063D01*
X436185Y550088D01*
X436276Y550116D01*
X436366Y550148D01*
X436454Y550184D01*
X436541Y550223D01*
X436627Y550266D01*
X436710Y550312D01*
X436792Y550361D01*
X436872Y550414D01*
X436949Y550470D01*
X437025Y550528D01*
X437097Y550590D01*
X437167Y550655D01*
X437235Y550723D01*
X437300Y550793D01*
X437362Y550865D01*
X437420Y550941D01*
X437476Y551018D01*
X437529Y551098D01*
X437578Y551179D01*
X437624Y551263D01*
X437667Y551349D01*
X437706Y551436D01*
X437742Y551524D01*
X437774Y551614D01*
X437802Y551705D01*
X437827Y551798D01*
X437848Y551891D01*
X437865Y551985D01*
X437879Y552079D01*
X437888Y552174D01*
X437894Y552269D01*
X437896Y552365D01*
X437896Y554736D01*
D11*
X435483Y427708D02*
X429218Y427708D01*
X432350Y430840D02*
X432350Y424575D01*
X505418Y433804D02*
X511683Y433804D01*
X508550Y430671D02*
X508550Y436936D01*
X392811Y522196D02*
X386546Y522196D01*
X389678Y525328D02*
X389678Y519063D01*
X389594Y449044D02*
X395859Y449044D01*
X453602Y427708D02*
X459867Y427708D01*
X526754Y433804D02*
X533019Y433804D01*
D10*
X453136Y517779D02*
X453134Y517881D01*
X453128Y517983D01*
X453118Y518085D01*
X453105Y518186D01*
X453087Y518287D01*
X453066Y518387D01*
X453041Y518486D01*
X453012Y518584D01*
X452979Y518681D01*
X452943Y518776D01*
X452903Y518870D01*
X452859Y518962D01*
X452812Y519053D01*
X452761Y519142D01*
X452708Y519229D01*
X452650Y519313D01*
X452590Y519396D01*
X452527Y519476D01*
X452460Y519553D01*
X452391Y519628D01*
X452318Y519701D01*
X452243Y519770D01*
X452166Y519837D01*
X452086Y519900D01*
X452003Y519960D01*
X451919Y520018D01*
X451832Y520071D01*
X451743Y520122D01*
X451652Y520169D01*
X451560Y520213D01*
X451466Y520253D01*
X451370Y520289D01*
X451274Y520322D01*
X451176Y520351D01*
X451077Y520376D01*
X450977Y520397D01*
X450876Y520415D01*
X450775Y520428D01*
X450673Y520438D01*
X450571Y520444D01*
X450469Y520446D01*
X453136Y517779D02*
X453134Y517663D01*
X453128Y517546D01*
X453118Y517430D01*
X453104Y517315D01*
X453087Y517200D01*
X453065Y517085D01*
X453039Y516972D01*
X453010Y516859D01*
X452977Y516747D01*
X452940Y516637D01*
X452899Y516528D01*
X452855Y516420D01*
X452807Y516314D01*
X452755Y516210D01*
X452700Y516107D01*
X452642Y516006D01*
X452580Y515908D01*
X452515Y515811D01*
X452446Y515717D01*
X452374Y515625D01*
X452300Y515536D01*
X452222Y515449D01*
X452141Y515365D01*
X452058Y515284D01*
X451972Y515206D01*
X451883Y515130D01*
X451792Y515058D01*
X451698Y514989D01*
X451602Y514923D01*
X451504Y514860D01*
X451404Y514801D01*
X451302Y514745D01*
X451198Y514693D01*
X451092Y514644D01*
X450984Y514599D01*
X450876Y514557D01*
X450766Y514520D01*
X448394Y519558D02*
X448468Y519633D01*
X448545Y519705D01*
X448625Y519774D01*
X448707Y519841D01*
X448791Y519904D01*
X448878Y519964D01*
X448966Y520021D01*
X449057Y520075D01*
X449150Y520125D01*
X449244Y520172D01*
X449340Y520215D01*
X449438Y520255D01*
X449537Y520291D01*
X449637Y520324D01*
X449739Y520352D01*
X449841Y520377D01*
X449945Y520399D01*
X450049Y520416D01*
X450153Y520430D01*
X450258Y520439D01*
X450364Y520445D01*
X450469Y520447D01*
X448395Y519557D02*
X442468Y514519D01*
X442468Y520446D01*
X447802Y525950D02*
X448012Y525953D01*
X448222Y525960D01*
X448431Y525973D01*
X448640Y525990D01*
X448849Y526013D01*
X449057Y526040D01*
X449264Y526072D01*
X449471Y526110D01*
X449676Y526152D01*
X449881Y526199D01*
X450084Y526251D01*
X450286Y526308D01*
X450487Y526370D01*
X450686Y526436D01*
X450883Y526508D01*
X451079Y526584D01*
X451273Y526664D01*
X451465Y526749D01*
X451654Y526839D01*
X451739Y526870D01*
X451823Y526904D01*
X451905Y526942D01*
X451986Y526984D01*
X452065Y527029D01*
X452142Y527077D01*
X452217Y527128D01*
X452289Y527182D01*
X452360Y527239D01*
X452428Y527299D01*
X452493Y527362D01*
X452556Y527427D01*
X452616Y527495D01*
X452673Y527566D01*
X452727Y527638D01*
X452779Y527713D01*
X452827Y527790D01*
X452872Y527869D01*
X452913Y527950D01*
X452951Y528032D01*
X452986Y528116D01*
X453017Y528201D01*
X453045Y528287D01*
X453069Y528374D01*
X453089Y528463D01*
X453106Y528552D01*
X453119Y528642D01*
X453129Y528732D01*
X453134Y528822D01*
X453136Y528913D01*
X453134Y529004D01*
X453129Y529094D01*
X453119Y529184D01*
X453106Y529274D01*
X453089Y529363D01*
X453069Y529452D01*
X453045Y529539D01*
X453017Y529625D01*
X452986Y529710D01*
X452951Y529794D01*
X452913Y529876D01*
X452872Y529957D01*
X452827Y530036D01*
X452779Y530113D01*
X452728Y530188D01*
X452673Y530260D01*
X452616Y530331D01*
X452556Y530399D01*
X452493Y530464D01*
X452428Y530527D01*
X452360Y530587D01*
X452289Y530644D01*
X452217Y530698D01*
X452142Y530749D01*
X452065Y530797D01*
X451986Y530842D01*
X451905Y530884D01*
X451823Y530922D01*
X451739Y530956D01*
X451654Y530987D01*
X451465Y531077D01*
X451273Y531162D01*
X451079Y531242D01*
X450883Y531318D01*
X450686Y531390D01*
X450487Y531456D01*
X450286Y531518D01*
X450084Y531575D01*
X449881Y531627D01*
X449676Y531674D01*
X449471Y531716D01*
X449264Y531754D01*
X449057Y531786D01*
X448849Y531813D01*
X448640Y531836D01*
X448431Y531853D01*
X448222Y531866D01*
X448012Y531873D01*
X447802Y531876D01*
X447802Y525950D02*
X447592Y525953D01*
X447382Y525960D01*
X447173Y525973D01*
X446964Y525990D01*
X446755Y526013D01*
X446547Y526040D01*
X446340Y526072D01*
X446133Y526110D01*
X445928Y526152D01*
X445723Y526199D01*
X445520Y526251D01*
X445318Y526308D01*
X445117Y526370D01*
X444918Y526436D01*
X444721Y526508D01*
X444525Y526584D01*
X444331Y526664D01*
X444140Y526749D01*
X443950Y526839D01*
X443865Y526870D01*
X443781Y526904D01*
X443699Y526942D01*
X443618Y526984D01*
X443539Y527029D01*
X443462Y527077D01*
X443387Y527128D01*
X443315Y527182D01*
X443244Y527239D01*
X443176Y527299D01*
X443111Y527362D01*
X443048Y527427D01*
X442988Y527495D01*
X442931Y527566D01*
X442876Y527638D01*
X442825Y527713D01*
X442777Y527790D01*
X442732Y527869D01*
X442691Y527950D01*
X442653Y528032D01*
X442618Y528116D01*
X442587Y528201D01*
X442559Y528287D01*
X442535Y528374D01*
X442515Y528463D01*
X442498Y528552D01*
X442485Y528642D01*
X442475Y528732D01*
X442470Y528822D01*
X442468Y528913D01*
X443950Y530987D02*
X444140Y531077D01*
X444331Y531162D01*
X444525Y531242D01*
X444721Y531318D01*
X444918Y531390D01*
X445117Y531456D01*
X445318Y531518D01*
X445520Y531575D01*
X445723Y531627D01*
X445928Y531674D01*
X446133Y531716D01*
X446340Y531754D01*
X446547Y531786D01*
X446755Y531813D01*
X446964Y531836D01*
X447173Y531853D01*
X447382Y531866D01*
X447592Y531873D01*
X447802Y531876D01*
X443950Y530987D02*
X443865Y530956D01*
X443781Y530922D01*
X443699Y530884D01*
X443618Y530842D01*
X443539Y530797D01*
X443462Y530749D01*
X443387Y530698D01*
X443315Y530644D01*
X443244Y530587D01*
X443176Y530527D01*
X443111Y530464D01*
X443048Y530399D01*
X442988Y530331D01*
X442931Y530260D01*
X442876Y530188D01*
X442825Y530113D01*
X442777Y530036D01*
X442732Y529957D01*
X442691Y529876D01*
X442653Y529794D01*
X442618Y529710D01*
X442587Y529625D01*
X442559Y529539D01*
X442535Y529452D01*
X442515Y529363D01*
X442498Y529274D01*
X442485Y529184D01*
X442475Y529094D01*
X442470Y529004D01*
X442468Y528913D01*
X444839Y526542D02*
X450765Y531283D01*
X453136Y540639D02*
X453134Y540741D01*
X453128Y540843D01*
X453118Y540945D01*
X453105Y541046D01*
X453087Y541147D01*
X453066Y541247D01*
X453041Y541346D01*
X453012Y541444D01*
X452979Y541541D01*
X452943Y541636D01*
X452903Y541730D01*
X452859Y541822D01*
X452812Y541913D01*
X452761Y542002D01*
X452708Y542089D01*
X452650Y542173D01*
X452590Y542256D01*
X452527Y542336D01*
X452460Y542413D01*
X452391Y542488D01*
X452318Y542561D01*
X452243Y542630D01*
X452166Y542697D01*
X452086Y542760D01*
X452003Y542820D01*
X451919Y542878D01*
X451832Y542931D01*
X451743Y542982D01*
X451652Y543029D01*
X451560Y543073D01*
X451466Y543113D01*
X451370Y543149D01*
X451274Y543182D01*
X451176Y543211D01*
X451077Y543236D01*
X450977Y543257D01*
X450876Y543275D01*
X450775Y543288D01*
X450673Y543298D01*
X450571Y543304D01*
X450469Y543306D01*
X453136Y540639D02*
X453134Y540523D01*
X453128Y540406D01*
X453118Y540290D01*
X453104Y540175D01*
X453087Y540060D01*
X453065Y539945D01*
X453039Y539832D01*
X453010Y539719D01*
X452977Y539607D01*
X452940Y539497D01*
X452899Y539388D01*
X452855Y539280D01*
X452807Y539174D01*
X452755Y539070D01*
X452700Y538967D01*
X452642Y538866D01*
X452580Y538768D01*
X452515Y538671D01*
X452446Y538577D01*
X452374Y538485D01*
X452300Y538396D01*
X452222Y538309D01*
X452141Y538225D01*
X452058Y538144D01*
X451972Y538066D01*
X451883Y537990D01*
X451792Y537918D01*
X451698Y537849D01*
X451602Y537783D01*
X451504Y537720D01*
X451404Y537661D01*
X451302Y537605D01*
X451198Y537553D01*
X451092Y537504D01*
X450984Y537459D01*
X450876Y537417D01*
X450766Y537380D01*
X448394Y542418D02*
X448468Y542493D01*
X448545Y542565D01*
X448625Y542634D01*
X448707Y542701D01*
X448791Y542764D01*
X448878Y542824D01*
X448966Y542881D01*
X449057Y542935D01*
X449150Y542985D01*
X449244Y543032D01*
X449340Y543075D01*
X449438Y543115D01*
X449537Y543151D01*
X449637Y543184D01*
X449739Y543212D01*
X449841Y543237D01*
X449945Y543259D01*
X450049Y543276D01*
X450153Y543290D01*
X450258Y543299D01*
X450364Y543305D01*
X450469Y543307D01*
X448395Y542417D02*
X442468Y537379D01*
X442468Y543306D01*
X447802Y548809D02*
X448012Y548812D01*
X448222Y548819D01*
X448431Y548832D01*
X448640Y548849D01*
X448849Y548872D01*
X449057Y548899D01*
X449264Y548931D01*
X449471Y548969D01*
X449676Y549011D01*
X449881Y549058D01*
X450084Y549110D01*
X450286Y549167D01*
X450487Y549229D01*
X450686Y549295D01*
X450883Y549367D01*
X451079Y549443D01*
X451273Y549523D01*
X451465Y549608D01*
X451654Y549698D01*
X451654Y549699D02*
X451739Y549730D01*
X451823Y549764D01*
X451905Y549802D01*
X451986Y549844D01*
X452065Y549889D01*
X452142Y549937D01*
X452217Y549988D01*
X452289Y550042D01*
X452360Y550099D01*
X452428Y550159D01*
X452493Y550222D01*
X452556Y550287D01*
X452616Y550355D01*
X452673Y550426D01*
X452727Y550498D01*
X452779Y550573D01*
X452827Y550650D01*
X452872Y550729D01*
X452913Y550810D01*
X452951Y550892D01*
X452986Y550976D01*
X453017Y551061D01*
X453045Y551147D01*
X453069Y551234D01*
X453089Y551323D01*
X453106Y551412D01*
X453119Y551502D01*
X453129Y551592D01*
X453134Y551682D01*
X453136Y551773D01*
X453134Y551864D01*
X453129Y551954D01*
X453119Y552044D01*
X453106Y552134D01*
X453089Y552223D01*
X453069Y552312D01*
X453045Y552399D01*
X453017Y552485D01*
X452986Y552570D01*
X452951Y552654D01*
X452913Y552736D01*
X452872Y552817D01*
X452827Y552896D01*
X452779Y552973D01*
X452728Y553048D01*
X452673Y553120D01*
X452616Y553191D01*
X452556Y553259D01*
X452493Y553324D01*
X452428Y553387D01*
X452360Y553447D01*
X452289Y553504D01*
X452217Y553558D01*
X452142Y553609D01*
X452065Y553657D01*
X451986Y553702D01*
X451905Y553744D01*
X451823Y553782D01*
X451739Y553816D01*
X451654Y553847D01*
X451465Y553937D01*
X451273Y554022D01*
X451079Y554102D01*
X450883Y554178D01*
X450686Y554250D01*
X450487Y554316D01*
X450286Y554378D01*
X450084Y554435D01*
X449881Y554487D01*
X449676Y554534D01*
X449471Y554576D01*
X449264Y554614D01*
X449057Y554646D01*
X448849Y554673D01*
X448640Y554696D01*
X448431Y554713D01*
X448222Y554726D01*
X448012Y554733D01*
X447802Y554736D01*
X447802Y548810D02*
X447592Y548813D01*
X447382Y548820D01*
X447173Y548833D01*
X446964Y548850D01*
X446755Y548873D01*
X446547Y548900D01*
X446340Y548932D01*
X446133Y548970D01*
X445928Y549012D01*
X445723Y549059D01*
X445520Y549111D01*
X445318Y549168D01*
X445117Y549230D01*
X444918Y549296D01*
X444721Y549368D01*
X444525Y549444D01*
X444331Y549524D01*
X444140Y549609D01*
X443950Y549699D01*
X443865Y549730D01*
X443781Y549764D01*
X443699Y549802D01*
X443618Y549844D01*
X443539Y549889D01*
X443462Y549937D01*
X443387Y549988D01*
X443315Y550042D01*
X443244Y550099D01*
X443176Y550159D01*
X443111Y550222D01*
X443048Y550287D01*
X442988Y550355D01*
X442931Y550426D01*
X442876Y550498D01*
X442825Y550573D01*
X442777Y550650D01*
X442732Y550729D01*
X442691Y550810D01*
X442653Y550892D01*
X442618Y550976D01*
X442587Y551061D01*
X442559Y551147D01*
X442535Y551234D01*
X442515Y551323D01*
X442498Y551412D01*
X442485Y551502D01*
X442475Y551592D01*
X442470Y551682D01*
X442468Y551773D01*
X443950Y553847D02*
X444140Y553937D01*
X444331Y554022D01*
X444525Y554102D01*
X444721Y554178D01*
X444918Y554250D01*
X445117Y554316D01*
X445318Y554378D01*
X445520Y554435D01*
X445723Y554487D01*
X445928Y554534D01*
X446133Y554576D01*
X446340Y554614D01*
X446547Y554646D01*
X446755Y554673D01*
X446964Y554696D01*
X447173Y554713D01*
X447382Y554726D01*
X447592Y554733D01*
X447802Y554736D01*
X443950Y553847D02*
X443865Y553816D01*
X443781Y553782D01*
X443699Y553744D01*
X443618Y553702D01*
X443539Y553657D01*
X443462Y553609D01*
X443387Y553558D01*
X443315Y553504D01*
X443244Y553447D01*
X443176Y553387D01*
X443111Y553324D01*
X443048Y553259D01*
X442988Y553191D01*
X442931Y553120D01*
X442876Y553048D01*
X442825Y552973D01*
X442777Y552896D01*
X442732Y552817D01*
X442691Y552736D01*
X442653Y552654D01*
X442618Y552570D01*
X442587Y552485D01*
X442559Y552399D01*
X442535Y552312D01*
X442515Y552223D01*
X442498Y552134D01*
X442485Y552044D01*
X442475Y551954D01*
X442470Y551864D01*
X442468Y551773D01*
X444839Y549402D02*
X450765Y554143D01*
X457708Y528320D02*
X468376Y528320D01*
X457708Y527135D02*
X457708Y529505D01*
X468376Y529505D02*
X468376Y527135D01*
X468376Y535051D02*
X457708Y535051D01*
X462449Y538607D02*
X468376Y535051D01*
X462449Y538607D02*
X468376Y542163D01*
X457708Y542163D01*
X457708Y547624D02*
X468376Y551180D01*
X457708Y554736D01*
X460375Y553847D02*
X460375Y548513D01*
D12*
X412750Y538800D03*
D13*
X412750Y513400D03*
X412750Y488000D03*
X412750Y462600D03*
X488950Y462600D03*
X488950Y488000D03*
X488950Y513400D03*
X488950Y538800D03*
D14*
X535178Y565404D03*
X509778Y565404D03*
D15*
X533400Y469900D03*
X533400Y546100D03*
D16*
X514350Y482600D03*
X514350Y533400D03*
D13*
X558800Y482600D03*
X558800Y508000D03*
X558800Y457200D03*
D17*
X406400Y414020D02*
X406400Y398780D01*
X431800Y398780D02*
X431800Y414020D01*
X457200Y414020D02*
X457200Y398780D01*
X482600Y398780D02*
X482600Y414020D01*
X382270Y508000D02*
X367030Y508000D01*
X367030Y482600D02*
X382270Y482600D01*
X382270Y457200D02*
X367030Y457200D01*
X533400Y414020D02*
X533400Y398780D01*
X508000Y398780D02*
X508000Y414020D01*
D18*
X457200Y406400D02*
X457200Y393700D01*
X464616Y386284D01*
X396240Y457200D02*
X374650Y457200D01*
X514350Y533400D02*
X521022Y526728D01*
X563880Y526728D01*
X509778Y550672D02*
X509778Y565404D01*
X509778Y550672D02*
X514350Y546100D01*
X514350Y533400D01*
X533400Y425450D02*
X533400Y406400D01*
X539992Y432042D02*
X560000Y432042D01*
X539992Y432042D02*
X533400Y425450D01*
X400050Y568316D02*
X387184Y555450D01*
X400050Y568316D02*
X478536Y568316D01*
X464616Y386284D02*
X524256Y386284D01*
X533400Y395428D02*
X533400Y406400D01*
X533400Y395428D02*
X524256Y386284D01*
X412750Y462600D02*
X401640Y462600D01*
X396240Y457200D01*
X374650Y457200D02*
X354732Y457200D01*
X351684Y460248D01*
X351684Y505968D02*
X351684Y518160D01*
X351684Y505968D02*
X351684Y460248D01*
X560000Y432042D02*
X572995Y445037D01*
X509778Y565404D02*
X481448Y565404D01*
X478536Y568316D01*
X572995Y517613D02*
X572995Y445037D01*
X572995Y517613D02*
X563880Y526728D01*
X351684Y519950D02*
X351684Y518160D01*
X351684Y519950D02*
X387184Y555450D01*
X533400Y563626D02*
X535178Y565404D01*
X533400Y563626D02*
X533400Y546100D01*
X431800Y406400D02*
X431800Y392634D01*
X425450Y386284D01*
X394766Y386284D01*
X387184Y393866D01*
X387184Y425284D01*
X488950Y538800D02*
X489900Y538800D01*
X514350Y514350D02*
X514350Y482600D01*
X514350Y514350D02*
X489900Y538800D01*
X539750Y508000D02*
X558800Y508000D01*
X539750Y508000D02*
X533400Y501650D01*
X527050Y482600D02*
X514350Y482600D01*
X533400Y488950D02*
X533400Y501650D01*
X533400Y488950D02*
X527050Y482600D01*
X475488Y562220D02*
X403470Y562220D01*
X487680Y538800D02*
X488950Y538800D01*
X487680Y538800D02*
X469740Y520860D01*
X488950Y548758D02*
X475488Y562220D01*
X488950Y548758D02*
X488950Y538800D01*
X457548Y481584D02*
X457548Y454500D01*
X446532Y443484D01*
X405384Y443484D01*
X387184Y425284D01*
X374650Y508000D02*
X374650Y533400D01*
X403470Y562220D01*
X469740Y493776D02*
X457548Y481584D01*
X469740Y493776D02*
X469740Y520860D01*
X508000Y425450D02*
X508000Y406400D01*
X546354Y470154D02*
X558800Y482600D01*
X546354Y463074D02*
X545846Y462566D01*
X545846Y451358D01*
X546354Y466344D02*
X546354Y470154D01*
X546354Y466344D02*
X546354Y463074D01*
X545846Y451358D02*
X536448Y441960D01*
X524510Y441960D01*
X508000Y425450D01*
X396240Y487680D02*
X390144Y481584D01*
X375666Y481584D01*
X374650Y482600D01*
X396240Y496890D02*
X412750Y513400D01*
X396240Y496890D02*
X396240Y487680D01*
X488950Y462600D02*
X512064Y462600D01*
X519364Y469900D01*
X533400Y469900D01*
X488950Y488000D02*
X475488Y488000D01*
X406400Y427736D02*
X406400Y406400D01*
X406400Y427736D02*
X414528Y435864D01*
X448404Y435864D01*
X463644Y451104D01*
X463644Y476156D01*
X475488Y488000D01*
X482600Y438150D02*
X482600Y406400D01*
X501904Y500446D02*
X488950Y513400D01*
X469900Y450850D02*
X482600Y438150D01*
X469900Y469900D02*
X473075Y473075D01*
X469900Y469900D02*
X469900Y450850D01*
X501904Y495300D02*
X501904Y500446D01*
D19*
X501904Y482634D02*
X495078Y475808D01*
X475808Y475808D02*
X473075Y473075D01*
X475808Y475808D02*
X495078Y475808D01*
X501904Y482634D02*
X501904Y495300D01*
M02*
