G04 EAGLE Gerber RS-274X export*
G75*
%MOMM*%
%FSLAX34Y34*%
%LPD*%
%IN*%
%IPPOS*%
%AMOC8*
5,1,8,0,0,1.08239X$1,22.5*%
G01*
%ADD10C,0.254000*%


D10*
X340000Y400000D02*
X340076Y398257D01*
X340304Y396527D01*
X340681Y394824D01*
X341206Y393160D01*
X341874Y391548D01*
X342680Y390000D01*
X343617Y388528D01*
X344679Y387144D01*
X345858Y385858D01*
X347144Y384679D01*
X348528Y383617D01*
X350000Y382680D01*
X351548Y381874D01*
X353160Y381206D01*
X354824Y380681D01*
X356527Y380304D01*
X358257Y380076D01*
X360000Y380000D01*
X570000Y380000D01*
X571743Y380076D01*
X573473Y380304D01*
X575176Y380681D01*
X576840Y381206D01*
X578452Y381874D01*
X580000Y382680D01*
X581472Y383617D01*
X582856Y384679D01*
X584142Y385858D01*
X585321Y387144D01*
X586383Y388528D01*
X587321Y390000D01*
X588126Y391548D01*
X588794Y393160D01*
X589319Y394824D01*
X589696Y396527D01*
X589924Y398257D01*
X590000Y400000D01*
X590000Y560000D01*
X589924Y561743D01*
X589696Y563473D01*
X589319Y565176D01*
X588794Y566840D01*
X588126Y568452D01*
X587321Y570000D01*
X586383Y571472D01*
X585321Y572856D01*
X584142Y574142D01*
X582856Y575321D01*
X581472Y576383D01*
X580000Y577321D01*
X578452Y578126D01*
X576840Y578794D01*
X575176Y579319D01*
X573473Y579696D01*
X571743Y579924D01*
X570000Y580000D01*
X360000Y580000D01*
X358257Y579924D01*
X356527Y579696D01*
X354824Y579319D01*
X353160Y578794D01*
X351548Y578126D01*
X350000Y577321D01*
X348528Y576383D01*
X347144Y575321D01*
X345858Y574142D01*
X344679Y572856D01*
X343617Y571472D01*
X342680Y570000D01*
X341874Y568452D01*
X341206Y566840D01*
X340681Y565176D01*
X340304Y563473D01*
X340076Y561743D01*
X340000Y560000D01*
X340000Y400000D01*
X370500Y399587D02*
X370435Y398765D01*
X370306Y397950D01*
X370114Y397148D01*
X369859Y396363D01*
X369543Y395601D01*
X369168Y394866D01*
X368737Y394162D01*
X368252Y393495D01*
X367716Y392867D01*
X367133Y392284D01*
X366506Y391748D01*
X365838Y391263D01*
X365134Y390832D01*
X364399Y390457D01*
X363637Y390141D01*
X362852Y389886D01*
X362050Y389694D01*
X361235Y389565D01*
X360413Y389500D01*
X359587Y389500D01*
X358765Y389565D01*
X357950Y389694D01*
X357148Y389886D01*
X356363Y390141D01*
X355601Y390457D01*
X354866Y390832D01*
X354162Y391263D01*
X353495Y391748D01*
X352867Y392284D01*
X352284Y392867D01*
X351748Y393495D01*
X351263Y394162D01*
X350832Y394866D01*
X350457Y395601D01*
X350141Y396363D01*
X349886Y397148D01*
X349694Y397950D01*
X349565Y398765D01*
X349500Y399587D01*
X349500Y400413D01*
X349565Y401235D01*
X349694Y402050D01*
X349886Y402852D01*
X350141Y403637D01*
X350457Y404399D01*
X350832Y405134D01*
X351263Y405838D01*
X351748Y406506D01*
X352284Y407133D01*
X352867Y407716D01*
X353495Y408252D01*
X354162Y408737D01*
X354866Y409168D01*
X355601Y409543D01*
X356363Y409859D01*
X357148Y410114D01*
X357950Y410306D01*
X358765Y410435D01*
X359587Y410500D01*
X360413Y410500D01*
X361235Y410435D01*
X362050Y410306D01*
X362852Y410114D01*
X363637Y409859D01*
X364399Y409543D01*
X365134Y409168D01*
X365838Y408737D01*
X366506Y408252D01*
X367133Y407716D01*
X367716Y407133D01*
X368252Y406506D01*
X368737Y405838D01*
X369168Y405134D01*
X369543Y404399D01*
X369859Y403637D01*
X370114Y402852D01*
X370306Y402050D01*
X370435Y401235D01*
X370500Y400413D01*
X370500Y399587D01*
X580500Y399587D02*
X580435Y398765D01*
X580306Y397950D01*
X580114Y397148D01*
X579859Y396363D01*
X579543Y395601D01*
X579168Y394866D01*
X578737Y394162D01*
X578252Y393495D01*
X577716Y392867D01*
X577133Y392284D01*
X576506Y391748D01*
X575838Y391263D01*
X575134Y390832D01*
X574399Y390457D01*
X573637Y390141D01*
X572852Y389886D01*
X572050Y389694D01*
X571235Y389565D01*
X570413Y389500D01*
X569587Y389500D01*
X568765Y389565D01*
X567950Y389694D01*
X567148Y389886D01*
X566363Y390141D01*
X565601Y390457D01*
X564866Y390832D01*
X564162Y391263D01*
X563495Y391748D01*
X562867Y392284D01*
X562284Y392867D01*
X561748Y393495D01*
X561263Y394162D01*
X560832Y394866D01*
X560457Y395601D01*
X560141Y396363D01*
X559886Y397148D01*
X559694Y397950D01*
X559565Y398765D01*
X559500Y399587D01*
X559500Y400413D01*
X559565Y401235D01*
X559694Y402050D01*
X559886Y402852D01*
X560141Y403637D01*
X560457Y404399D01*
X560832Y405134D01*
X561263Y405838D01*
X561748Y406506D01*
X562284Y407133D01*
X562867Y407716D01*
X563495Y408252D01*
X564162Y408737D01*
X564866Y409168D01*
X565601Y409543D01*
X566363Y409859D01*
X567148Y410114D01*
X567950Y410306D01*
X568765Y410435D01*
X569587Y410500D01*
X570413Y410500D01*
X571235Y410435D01*
X572050Y410306D01*
X572852Y410114D01*
X573637Y409859D01*
X574399Y409543D01*
X575134Y409168D01*
X575838Y408737D01*
X576506Y408252D01*
X577133Y407716D01*
X577716Y407133D01*
X578252Y406506D01*
X578737Y405838D01*
X579168Y405134D01*
X579543Y404399D01*
X579859Y403637D01*
X580114Y402852D01*
X580306Y402050D01*
X580435Y401235D01*
X580500Y400413D01*
X580500Y399587D01*
X580500Y559587D02*
X580435Y558765D01*
X580306Y557950D01*
X580114Y557148D01*
X579859Y556363D01*
X579543Y555601D01*
X579168Y554866D01*
X578737Y554162D01*
X578252Y553495D01*
X577716Y552867D01*
X577133Y552284D01*
X576506Y551748D01*
X575838Y551263D01*
X575134Y550832D01*
X574399Y550457D01*
X573637Y550141D01*
X572852Y549886D01*
X572050Y549694D01*
X571235Y549565D01*
X570413Y549500D01*
X569587Y549500D01*
X568765Y549565D01*
X567950Y549694D01*
X567148Y549886D01*
X566363Y550141D01*
X565601Y550457D01*
X564866Y550832D01*
X564162Y551263D01*
X563495Y551748D01*
X562867Y552284D01*
X562284Y552867D01*
X561748Y553495D01*
X561263Y554162D01*
X560832Y554866D01*
X560457Y555601D01*
X560141Y556363D01*
X559886Y557148D01*
X559694Y557950D01*
X559565Y558765D01*
X559500Y559587D01*
X559500Y560413D01*
X559565Y561235D01*
X559694Y562050D01*
X559886Y562852D01*
X560141Y563637D01*
X560457Y564399D01*
X560832Y565134D01*
X561263Y565838D01*
X561748Y566506D01*
X562284Y567133D01*
X562867Y567716D01*
X563495Y568252D01*
X564162Y568737D01*
X564866Y569168D01*
X565601Y569543D01*
X566363Y569859D01*
X567148Y570114D01*
X567950Y570306D01*
X568765Y570435D01*
X569587Y570500D01*
X570413Y570500D01*
X571235Y570435D01*
X572050Y570306D01*
X572852Y570114D01*
X573637Y569859D01*
X574399Y569543D01*
X575134Y569168D01*
X575838Y568737D01*
X576506Y568252D01*
X577133Y567716D01*
X577716Y567133D01*
X578252Y566506D01*
X578737Y565838D01*
X579168Y565134D01*
X579543Y564399D01*
X579859Y563637D01*
X580114Y562852D01*
X580306Y562050D01*
X580435Y561235D01*
X580500Y560413D01*
X580500Y559587D01*
X370500Y559587D02*
X370435Y558765D01*
X370306Y557950D01*
X370114Y557148D01*
X369859Y556363D01*
X369543Y555601D01*
X369168Y554866D01*
X368737Y554162D01*
X368252Y553495D01*
X367716Y552867D01*
X367133Y552284D01*
X366506Y551748D01*
X365838Y551263D01*
X365134Y550832D01*
X364399Y550457D01*
X363637Y550141D01*
X362852Y549886D01*
X362050Y549694D01*
X361235Y549565D01*
X360413Y549500D01*
X359587Y549500D01*
X358765Y549565D01*
X357950Y549694D01*
X357148Y549886D01*
X356363Y550141D01*
X355601Y550457D01*
X354866Y550832D01*
X354162Y551263D01*
X353495Y551748D01*
X352867Y552284D01*
X352284Y552867D01*
X351748Y553495D01*
X351263Y554162D01*
X350832Y554866D01*
X350457Y555601D01*
X350141Y556363D01*
X349886Y557148D01*
X349694Y557950D01*
X349565Y558765D01*
X349500Y559587D01*
X349500Y560413D01*
X349565Y561235D01*
X349694Y562050D01*
X349886Y562852D01*
X350141Y563637D01*
X350457Y564399D01*
X350832Y565134D01*
X351263Y565838D01*
X351748Y566506D01*
X352284Y567133D01*
X352867Y567716D01*
X353495Y568252D01*
X354162Y568737D01*
X354866Y569168D01*
X355601Y569543D01*
X356363Y569859D01*
X357148Y570114D01*
X357950Y570306D01*
X358765Y570435D01*
X359587Y570500D01*
X360413Y570500D01*
X361235Y570435D01*
X362050Y570306D01*
X362852Y570114D01*
X363637Y569859D01*
X364399Y569543D01*
X365134Y569168D01*
X365838Y568737D01*
X366506Y568252D01*
X367133Y567716D01*
X367716Y567133D01*
X368252Y566506D01*
X368737Y565838D01*
X369168Y565134D01*
X369543Y564399D01*
X369859Y563637D01*
X370114Y562852D01*
X370306Y562050D01*
X370435Y561235D01*
X370500Y560413D01*
X370500Y559587D01*
M02*
