G04 EAGLE Gerber RS-274X export*
G75*
%MOMM*%
%FSLAX34Y34*%
%LPD*%
%INSilkscreen Top*%
%IPPOS*%
%AMOC8*
5,1,8,0,0,1.08239X$1,22.5*%
G01*
%ADD10C,0.152400*%
%ADD11C,0.076200*%
%ADD12C,0.101600*%
%ADD13C,0.203200*%
%ADD14C,0.025400*%
%ADD15R,0.508000X0.381000*%
%ADD16C,0.127000*%
%ADD17C,0.304800*%


D10*
X395252Y451866D02*
X395252Y462703D01*
X448818Y433804D02*
X459655Y433804D01*
X528066Y433804D02*
X538903Y433804D01*
D11*
X398907Y505940D02*
X392642Y505940D01*
X395774Y509072D02*
X395774Y502807D01*
X427101Y430756D02*
X433366Y430756D01*
X430234Y433888D02*
X430234Y427623D01*
X506349Y430756D02*
X512614Y430756D01*
X509482Y433888D02*
X509482Y427623D01*
X401955Y466725D02*
X401955Y469336D01*
X401953Y469437D01*
X401947Y469538D01*
X401937Y469639D01*
X401924Y469739D01*
X401906Y469839D01*
X401885Y469938D01*
X401859Y470036D01*
X401830Y470133D01*
X401798Y470229D01*
X401761Y470323D01*
X401721Y470416D01*
X401677Y470508D01*
X401630Y470597D01*
X401579Y470685D01*
X401525Y470771D01*
X401468Y470854D01*
X401408Y470936D01*
X401344Y471014D01*
X401278Y471091D01*
X401208Y471164D01*
X401136Y471235D01*
X401061Y471303D01*
X400983Y471368D01*
X400903Y471430D01*
X400821Y471489D01*
X400736Y471545D01*
X400650Y471597D01*
X400561Y471646D01*
X400470Y471692D01*
X400378Y471733D01*
X400284Y471772D01*
X400189Y471806D01*
X400093Y471837D01*
X399995Y471864D01*
X399897Y471888D01*
X399797Y471907D01*
X399697Y471923D01*
X399597Y471935D01*
X399496Y471943D01*
X399395Y471947D01*
X399293Y471947D01*
X399192Y471943D01*
X399091Y471935D01*
X398991Y471923D01*
X398891Y471907D01*
X398791Y471888D01*
X398693Y471864D01*
X398595Y471837D01*
X398499Y471806D01*
X398404Y471772D01*
X398310Y471733D01*
X398218Y471692D01*
X398127Y471646D01*
X398039Y471597D01*
X397952Y471545D01*
X397867Y471489D01*
X397785Y471430D01*
X397705Y471368D01*
X397627Y471303D01*
X397552Y471235D01*
X397480Y471164D01*
X397410Y471091D01*
X397344Y471014D01*
X397280Y470936D01*
X397220Y470854D01*
X397163Y470771D01*
X397109Y470685D01*
X397058Y470597D01*
X397011Y470508D01*
X396967Y470416D01*
X396927Y470323D01*
X396890Y470229D01*
X396858Y470133D01*
X396829Y470036D01*
X396803Y469938D01*
X396782Y469839D01*
X396764Y469739D01*
X396751Y469639D01*
X396741Y469538D01*
X396735Y469437D01*
X396733Y469336D01*
X392557Y469858D02*
X392557Y466725D01*
X392557Y469858D02*
X392559Y469948D01*
X392565Y470037D01*
X392574Y470127D01*
X392588Y470216D01*
X392605Y470304D01*
X392626Y470391D01*
X392651Y470478D01*
X392680Y470563D01*
X392712Y470647D01*
X392747Y470729D01*
X392787Y470810D01*
X392829Y470889D01*
X392875Y470966D01*
X392925Y471041D01*
X392977Y471114D01*
X393033Y471185D01*
X393091Y471253D01*
X393153Y471318D01*
X393217Y471381D01*
X393284Y471441D01*
X393353Y471498D01*
X393425Y471552D01*
X393499Y471603D01*
X393575Y471651D01*
X393653Y471695D01*
X393733Y471736D01*
X393815Y471774D01*
X393898Y471808D01*
X393983Y471838D01*
X394069Y471865D01*
X394155Y471888D01*
X394243Y471907D01*
X394332Y471922D01*
X394421Y471934D01*
X394510Y471942D01*
X394600Y471946D01*
X394690Y471946D01*
X394780Y471942D01*
X394869Y471934D01*
X394958Y471922D01*
X395047Y471907D01*
X395135Y471888D01*
X395221Y471865D01*
X395307Y471838D01*
X395392Y471808D01*
X395475Y471774D01*
X395557Y471736D01*
X395637Y471695D01*
X395715Y471651D01*
X395791Y471603D01*
X395865Y471552D01*
X395937Y471498D01*
X396006Y471441D01*
X396073Y471381D01*
X396137Y471318D01*
X396199Y471253D01*
X396257Y471185D01*
X396313Y471114D01*
X396365Y471041D01*
X396415Y470966D01*
X396461Y470889D01*
X396503Y470810D01*
X396543Y470729D01*
X396578Y470647D01*
X396610Y470563D01*
X396639Y470478D01*
X396664Y470391D01*
X396685Y470304D01*
X396702Y470216D01*
X396716Y470127D01*
X396725Y470037D01*
X396731Y469948D01*
X396733Y469858D01*
X396734Y469858D02*
X396734Y467769D01*
X402999Y475477D02*
X391513Y479654D01*
X392557Y485795D02*
X401955Y482662D01*
X401955Y488927D02*
X392557Y485795D01*
X399606Y488144D02*
X399606Y483445D01*
X401955Y492328D02*
X401955Y494939D01*
X401953Y495040D01*
X401947Y495141D01*
X401937Y495242D01*
X401924Y495342D01*
X401906Y495442D01*
X401885Y495541D01*
X401859Y495639D01*
X401830Y495736D01*
X401798Y495832D01*
X401761Y495926D01*
X401721Y496019D01*
X401677Y496111D01*
X401630Y496200D01*
X401579Y496288D01*
X401525Y496374D01*
X401468Y496457D01*
X401408Y496539D01*
X401344Y496617D01*
X401278Y496694D01*
X401208Y496767D01*
X401136Y496838D01*
X401061Y496906D01*
X400983Y496971D01*
X400903Y497033D01*
X400821Y497092D01*
X400736Y497148D01*
X400650Y497200D01*
X400561Y497249D01*
X400470Y497295D01*
X400378Y497336D01*
X400284Y497375D01*
X400189Y497409D01*
X400093Y497440D01*
X399995Y497467D01*
X399897Y497491D01*
X399797Y497510D01*
X399697Y497526D01*
X399597Y497538D01*
X399496Y497546D01*
X399395Y497550D01*
X399293Y497550D01*
X399192Y497546D01*
X399091Y497538D01*
X398991Y497526D01*
X398891Y497510D01*
X398791Y497491D01*
X398693Y497467D01*
X398595Y497440D01*
X398499Y497409D01*
X398404Y497375D01*
X398310Y497336D01*
X398218Y497295D01*
X398127Y497249D01*
X398039Y497200D01*
X397952Y497148D01*
X397867Y497092D01*
X397785Y497033D01*
X397705Y496971D01*
X397627Y496906D01*
X397552Y496838D01*
X397480Y496767D01*
X397410Y496694D01*
X397344Y496617D01*
X397280Y496539D01*
X397220Y496457D01*
X397163Y496374D01*
X397109Y496288D01*
X397058Y496200D01*
X397011Y496111D01*
X396967Y496019D01*
X396927Y495926D01*
X396890Y495832D01*
X396858Y495736D01*
X396829Y495639D01*
X396803Y495541D01*
X396782Y495442D01*
X396764Y495342D01*
X396751Y495242D01*
X396741Y495141D01*
X396735Y495040D01*
X396733Y494939D01*
X392557Y495461D02*
X392557Y492328D01*
X392557Y495461D02*
X392559Y495551D01*
X392565Y495640D01*
X392574Y495730D01*
X392588Y495819D01*
X392605Y495907D01*
X392626Y495994D01*
X392651Y496081D01*
X392680Y496166D01*
X392712Y496250D01*
X392747Y496332D01*
X392787Y496413D01*
X392829Y496492D01*
X392875Y496569D01*
X392925Y496644D01*
X392977Y496717D01*
X393033Y496788D01*
X393091Y496856D01*
X393153Y496921D01*
X393217Y496984D01*
X393284Y497044D01*
X393353Y497101D01*
X393425Y497155D01*
X393499Y497206D01*
X393575Y497254D01*
X393653Y497298D01*
X393733Y497339D01*
X393815Y497377D01*
X393898Y497411D01*
X393983Y497441D01*
X394069Y497468D01*
X394155Y497491D01*
X394243Y497510D01*
X394332Y497525D01*
X394421Y497537D01*
X394510Y497545D01*
X394600Y497549D01*
X394690Y497549D01*
X394780Y497545D01*
X394869Y497537D01*
X394958Y497525D01*
X395047Y497510D01*
X395135Y497491D01*
X395221Y497468D01*
X395307Y497441D01*
X395392Y497411D01*
X395475Y497377D01*
X395557Y497339D01*
X395637Y497298D01*
X395715Y497254D01*
X395791Y497206D01*
X395865Y497155D01*
X395937Y497101D01*
X396006Y497044D01*
X396073Y496984D01*
X396137Y496921D01*
X396199Y496856D01*
X396257Y496788D01*
X396313Y496717D01*
X396365Y496644D01*
X396415Y496569D01*
X396461Y496492D01*
X396503Y496413D01*
X396543Y496332D01*
X396578Y496250D01*
X396610Y496166D01*
X396639Y496081D01*
X396664Y495994D01*
X396685Y495907D01*
X396702Y495819D01*
X396716Y495730D01*
X396725Y495640D01*
X396731Y495551D01*
X396733Y495461D01*
X396734Y495461D02*
X396734Y493372D01*
X472645Y436500D02*
X472740Y436498D01*
X472834Y436492D01*
X472928Y436483D01*
X473022Y436470D01*
X473115Y436453D01*
X473207Y436432D01*
X473299Y436407D01*
X473389Y436379D01*
X473478Y436347D01*
X473566Y436312D01*
X473652Y436273D01*
X473737Y436231D01*
X473820Y436185D01*
X473901Y436136D01*
X473980Y436084D01*
X474057Y436029D01*
X474131Y435970D01*
X474203Y435909D01*
X474273Y435845D01*
X474340Y435778D01*
X474404Y435708D01*
X474465Y435636D01*
X474524Y435562D01*
X474579Y435485D01*
X474631Y435406D01*
X474680Y435325D01*
X474726Y435242D01*
X474768Y435157D01*
X474807Y435071D01*
X474842Y434983D01*
X474874Y434894D01*
X474902Y434804D01*
X474927Y434712D01*
X474948Y434620D01*
X474965Y434527D01*
X474978Y434433D01*
X474987Y434339D01*
X474993Y434245D01*
X474995Y434150D01*
X472645Y436499D02*
X472537Y436497D01*
X472428Y436491D01*
X472320Y436481D01*
X472213Y436468D01*
X472106Y436450D01*
X471999Y436429D01*
X471894Y436404D01*
X471789Y436375D01*
X471686Y436343D01*
X471584Y436306D01*
X471483Y436266D01*
X471384Y436223D01*
X471286Y436176D01*
X471190Y436125D01*
X471096Y436071D01*
X471004Y436014D01*
X470914Y435953D01*
X470826Y435889D01*
X470741Y435823D01*
X470658Y435753D01*
X470578Y435680D01*
X470500Y435604D01*
X470425Y435526D01*
X470353Y435445D01*
X470284Y435361D01*
X470218Y435275D01*
X470155Y435187D01*
X470096Y435096D01*
X470039Y435004D01*
X469986Y434909D01*
X469937Y434813D01*
X469891Y434714D01*
X469848Y434615D01*
X469809Y434513D01*
X469774Y434411D01*
X474211Y432322D02*
X474280Y432391D01*
X474346Y432462D01*
X474410Y432535D01*
X474471Y432611D01*
X474529Y432690D01*
X474583Y432770D01*
X474635Y432853D01*
X474683Y432937D01*
X474729Y433023D01*
X474770Y433111D01*
X474809Y433201D01*
X474844Y433292D01*
X474875Y433384D01*
X474903Y433477D01*
X474927Y433571D01*
X474947Y433666D01*
X474964Y433762D01*
X474977Y433859D01*
X474986Y433956D01*
X474992Y434053D01*
X474994Y434150D01*
X474211Y432322D02*
X469773Y427101D01*
X474994Y427101D01*
X478525Y426057D02*
X482702Y437543D01*
X488843Y436499D02*
X485710Y427101D01*
X491975Y427101D02*
X488843Y436499D01*
X491192Y429451D02*
X486493Y429451D01*
X495376Y434411D02*
X497987Y436499D01*
X497987Y427101D01*
X500597Y427101D02*
X495376Y427101D01*
X402280Y436499D02*
X399669Y434411D01*
X402280Y436499D02*
X402280Y427101D01*
X404890Y427101D02*
X399669Y427101D01*
D10*
X416052Y449900D02*
X485648Y449900D01*
X485648Y551500D02*
X453898Y551500D01*
X447802Y551500D01*
X424180Y551500D01*
X447802Y551500D02*
X447804Y551391D01*
X447810Y551283D01*
X447819Y551174D01*
X447833Y551066D01*
X447850Y550959D01*
X447872Y550852D01*
X447897Y550746D01*
X447925Y550641D01*
X447958Y550537D01*
X447994Y550435D01*
X448034Y550334D01*
X448077Y550234D01*
X448124Y550136D01*
X448175Y550039D01*
X448229Y549945D01*
X448286Y549852D01*
X448346Y549762D01*
X448410Y549673D01*
X448477Y549587D01*
X448546Y549504D01*
X448619Y549423D01*
X448695Y549345D01*
X448773Y549269D01*
X448854Y549196D01*
X448937Y549127D01*
X449023Y549060D01*
X449112Y548996D01*
X449202Y548936D01*
X449295Y548879D01*
X449389Y548825D01*
X449486Y548774D01*
X449584Y548727D01*
X449684Y548684D01*
X449785Y548644D01*
X449887Y548608D01*
X449991Y548575D01*
X450096Y548547D01*
X450202Y548522D01*
X450309Y548500D01*
X450416Y548483D01*
X450524Y548469D01*
X450633Y548460D01*
X450741Y548454D01*
X450850Y548452D01*
X450959Y548454D01*
X451067Y548460D01*
X451176Y548469D01*
X451284Y548483D01*
X451391Y548500D01*
X451498Y548522D01*
X451604Y548547D01*
X451709Y548575D01*
X451813Y548608D01*
X451915Y548644D01*
X452016Y548684D01*
X452116Y548727D01*
X452214Y548774D01*
X452311Y548825D01*
X452405Y548879D01*
X452498Y548936D01*
X452588Y548996D01*
X452677Y549060D01*
X452763Y549127D01*
X452846Y549196D01*
X452927Y549269D01*
X453005Y549345D01*
X453081Y549423D01*
X453154Y549504D01*
X453223Y549587D01*
X453290Y549673D01*
X453354Y549762D01*
X453414Y549852D01*
X453471Y549945D01*
X453525Y550039D01*
X453576Y550136D01*
X453623Y550234D01*
X453666Y550334D01*
X453706Y550435D01*
X453742Y550537D01*
X453775Y550641D01*
X453803Y550746D01*
X453828Y550852D01*
X453850Y550959D01*
X453867Y551066D01*
X453881Y551174D01*
X453890Y551283D01*
X453896Y551391D01*
X453898Y551500D01*
D12*
X417019Y558080D02*
X417019Y564684D01*
X417019Y558080D02*
X417021Y557980D01*
X417027Y557881D01*
X417037Y557781D01*
X417050Y557683D01*
X417068Y557584D01*
X417089Y557487D01*
X417114Y557391D01*
X417143Y557295D01*
X417176Y557201D01*
X417212Y557108D01*
X417252Y557017D01*
X417296Y556927D01*
X417343Y556839D01*
X417393Y556753D01*
X417447Y556669D01*
X417504Y556587D01*
X417564Y556508D01*
X417628Y556430D01*
X417694Y556356D01*
X417763Y556284D01*
X417835Y556215D01*
X417909Y556149D01*
X417987Y556085D01*
X418066Y556025D01*
X418148Y555968D01*
X418232Y555914D01*
X418318Y555864D01*
X418406Y555817D01*
X418496Y555773D01*
X418587Y555733D01*
X418680Y555697D01*
X418774Y555664D01*
X418870Y555635D01*
X418966Y555610D01*
X419063Y555589D01*
X419162Y555571D01*
X419260Y555558D01*
X419360Y555548D01*
X419459Y555542D01*
X419559Y555540D01*
X419659Y555542D01*
X419758Y555548D01*
X419858Y555558D01*
X419956Y555571D01*
X420055Y555589D01*
X420152Y555610D01*
X420248Y555635D01*
X420344Y555664D01*
X420438Y555697D01*
X420531Y555733D01*
X420622Y555773D01*
X420712Y555817D01*
X420800Y555864D01*
X420886Y555914D01*
X420970Y555968D01*
X421052Y556025D01*
X421131Y556085D01*
X421209Y556149D01*
X421283Y556215D01*
X421355Y556284D01*
X421424Y556356D01*
X421490Y556430D01*
X421554Y556508D01*
X421614Y556587D01*
X421671Y556669D01*
X421725Y556753D01*
X421775Y556839D01*
X421822Y556927D01*
X421866Y557017D01*
X421906Y557108D01*
X421942Y557201D01*
X421975Y557295D01*
X422004Y557391D01*
X422029Y557487D01*
X422050Y557584D01*
X422068Y557683D01*
X422081Y557781D01*
X422091Y557881D01*
X422097Y557980D01*
X422099Y558080D01*
X422099Y564684D01*
X426468Y562652D02*
X429008Y564684D01*
X429008Y555540D01*
X426468Y555540D02*
X431548Y555540D01*
D13*
X497078Y546354D02*
X497078Y584454D01*
D14*
X496240Y545567D02*
X498069Y546939D01*
X498069Y546938D02*
X498528Y546347D01*
X499001Y545767D01*
X499488Y545199D01*
X499989Y544643D01*
X500503Y544100D01*
X501030Y543569D01*
X501570Y543051D01*
X502123Y542546D01*
X502688Y542056D01*
X503265Y541579D01*
X503853Y541116D01*
X504452Y540668D01*
X505063Y540235D01*
X505683Y539816D01*
X506314Y539414D01*
X506954Y539026D01*
X507603Y538654D01*
X508262Y538299D01*
X508929Y537959D01*
X509604Y537636D01*
X510287Y537330D01*
X510977Y537040D01*
X511673Y536767D01*
X512377Y536512D01*
X513086Y536274D01*
X513801Y536053D01*
X514521Y535849D01*
X515246Y535664D01*
X515975Y535496D01*
X516709Y535346D01*
X517445Y535214D01*
X518185Y535100D01*
X518927Y535004D01*
X519671Y534926D01*
X520417Y534866D01*
X521164Y534825D01*
X521912Y534802D01*
X522661Y534798D01*
X523409Y534811D01*
X524157Y534843D01*
X524903Y534893D01*
X525648Y534962D01*
X526392Y535048D01*
X527133Y535153D01*
X527871Y535276D01*
X528606Y535417D01*
X529337Y535575D01*
X530064Y535752D01*
X530787Y535946D01*
X531505Y536158D01*
X532217Y536388D01*
X532923Y536635D01*
X533624Y536899D01*
X534317Y537180D01*
X535004Y537477D01*
X535683Y537792D01*
X536354Y538123D01*
X537017Y538470D01*
X537671Y538834D01*
X538316Y539213D01*
X538951Y539608D01*
X539577Y540019D01*
X540193Y540444D01*
X540798Y540885D01*
X541392Y541340D01*
X541974Y541810D01*
X542545Y542294D01*
X543104Y542791D01*
X543651Y543302D01*
X544185Y543826D01*
X544706Y544363D01*
X545214Y544913D01*
X545708Y545475D01*
X546188Y546049D01*
X546654Y546634D01*
X547106Y547231D01*
X547543Y547839D01*
X547965Y548457D01*
X548372Y549085D01*
X548763Y549723D01*
X549138Y550370D01*
X549498Y551026D01*
X549841Y551691D01*
X550168Y552364D01*
X550479Y553045D01*
X550773Y553733D01*
X551049Y554429D01*
X551309Y555130D01*
X551552Y555838D01*
X551777Y556552D01*
X551985Y557271D01*
X552175Y557995D01*
X552347Y558723D01*
X552501Y559455D01*
X552638Y560191D01*
X552756Y560930D01*
X552857Y561672D01*
X552939Y562415D01*
X553003Y563161D01*
X553048Y563908D01*
X553076Y564656D01*
X553085Y565404D01*
X553076Y566152D01*
X553048Y566900D01*
X553003Y567647D01*
X552939Y568393D01*
X552857Y569136D01*
X552756Y569878D01*
X552638Y570617D01*
X552501Y571353D01*
X552347Y572085D01*
X552175Y572813D01*
X551985Y573537D01*
X551777Y574256D01*
X551552Y574970D01*
X551309Y575678D01*
X551049Y576379D01*
X550773Y577075D01*
X550479Y577763D01*
X550168Y578444D01*
X549841Y579117D01*
X549498Y579782D01*
X549138Y580438D01*
X548763Y581085D01*
X548372Y581723D01*
X547965Y582351D01*
X547543Y582969D01*
X547106Y583577D01*
X546654Y584174D01*
X546188Y584759D01*
X545708Y585333D01*
X545214Y585895D01*
X544706Y586445D01*
X544185Y586982D01*
X543651Y587506D01*
X543104Y588017D01*
X542545Y588514D01*
X541974Y588998D01*
X541392Y589468D01*
X540798Y589923D01*
X540193Y590364D01*
X539577Y590789D01*
X538951Y591200D01*
X538316Y591595D01*
X537671Y591974D01*
X537017Y592338D01*
X536354Y592685D01*
X535683Y593016D01*
X535004Y593331D01*
X534317Y593628D01*
X533624Y593909D01*
X532923Y594173D01*
X532217Y594420D01*
X531505Y594650D01*
X530787Y594862D01*
X530064Y595056D01*
X529337Y595233D01*
X528606Y595391D01*
X527871Y595532D01*
X527133Y595655D01*
X526392Y595760D01*
X525648Y595846D01*
X524903Y595915D01*
X524157Y595965D01*
X523409Y595997D01*
X522661Y596010D01*
X521912Y596006D01*
X521164Y595983D01*
X520417Y595942D01*
X519671Y595882D01*
X518927Y595804D01*
X518185Y595708D01*
X517445Y595594D01*
X516709Y595462D01*
X515975Y595312D01*
X515246Y595144D01*
X514521Y594959D01*
X513801Y594755D01*
X513086Y594534D01*
X512377Y594296D01*
X511673Y594041D01*
X510977Y593768D01*
X510287Y593478D01*
X509604Y593172D01*
X508929Y592849D01*
X508262Y592509D01*
X507603Y592154D01*
X506954Y591782D01*
X506314Y591394D01*
X505683Y590992D01*
X505063Y590573D01*
X504452Y590140D01*
X503853Y589692D01*
X503265Y589229D01*
X502688Y588752D01*
X502123Y588262D01*
X501570Y587757D01*
X501030Y587239D01*
X500503Y586708D01*
X499989Y586165D01*
X499488Y585609D01*
X499001Y585041D01*
X498528Y584461D01*
X498069Y583870D01*
X496240Y585241D01*
X496733Y585877D01*
X497241Y586500D01*
X497765Y587111D01*
X498303Y587709D01*
X498855Y588293D01*
X499422Y588864D01*
X500002Y589421D01*
X500596Y589963D01*
X501203Y590491D01*
X501823Y591003D01*
X502455Y591501D01*
X503099Y591983D01*
X503755Y592448D01*
X504422Y592898D01*
X505100Y593331D01*
X505788Y593748D01*
X506486Y594148D01*
X507193Y594530D01*
X507910Y594895D01*
X508635Y595242D01*
X509369Y595572D01*
X510111Y595883D01*
X510860Y596177D01*
X511615Y596452D01*
X512378Y596708D01*
X513146Y596946D01*
X513920Y597164D01*
X514699Y597364D01*
X515483Y597545D01*
X516271Y597706D01*
X517063Y597848D01*
X517858Y597971D01*
X518655Y598074D01*
X519455Y598158D01*
X520257Y598222D01*
X521060Y598266D01*
X521864Y598291D01*
X522668Y598296D01*
X523473Y598282D01*
X524276Y598248D01*
X525079Y598194D01*
X525880Y598121D01*
X526679Y598028D01*
X527475Y597915D01*
X528268Y597783D01*
X529058Y597632D01*
X529844Y597462D01*
X530626Y597272D01*
X531403Y597063D01*
X532174Y596835D01*
X532940Y596589D01*
X533699Y596324D01*
X534452Y596040D01*
X535197Y595738D01*
X535935Y595418D01*
X536665Y595080D01*
X537387Y594724D01*
X538099Y594351D01*
X538802Y593960D01*
X539495Y593553D01*
X540179Y593128D01*
X540851Y592687D01*
X541513Y592230D01*
X542163Y591756D01*
X542801Y591267D01*
X543428Y590763D01*
X544042Y590243D01*
X544642Y589708D01*
X545230Y589159D01*
X545804Y588595D01*
X546364Y588018D01*
X546910Y587427D01*
X547441Y586823D01*
X547957Y586207D01*
X548458Y585577D01*
X548944Y584936D01*
X549414Y584283D01*
X549867Y583619D01*
X550304Y582944D01*
X550725Y582258D01*
X551129Y581563D01*
X551515Y580857D01*
X551884Y580143D01*
X552236Y579419D01*
X552570Y578687D01*
X552885Y577948D01*
X553183Y577200D01*
X553462Y576446D01*
X553723Y575685D01*
X553965Y574918D01*
X554188Y574145D01*
X554392Y573367D01*
X554578Y572585D01*
X554744Y571798D01*
X554890Y571007D01*
X555018Y570213D01*
X555125Y569416D01*
X555214Y568616D01*
X555283Y567815D01*
X555332Y567012D01*
X555361Y566208D01*
X555371Y565404D01*
X555361Y564600D01*
X555332Y563796D01*
X555283Y562993D01*
X555214Y562192D01*
X555125Y561392D01*
X555018Y560595D01*
X554890Y559801D01*
X554744Y559010D01*
X554578Y558223D01*
X554392Y557441D01*
X554188Y556663D01*
X553965Y555890D01*
X553723Y555123D01*
X553462Y554362D01*
X553183Y553608D01*
X552885Y552860D01*
X552570Y552121D01*
X552236Y551389D01*
X551884Y550665D01*
X551515Y549951D01*
X551129Y549245D01*
X550725Y548550D01*
X550304Y547864D01*
X549867Y547189D01*
X549414Y546525D01*
X548944Y545872D01*
X548458Y545231D01*
X547957Y544601D01*
X547441Y543985D01*
X546910Y543381D01*
X546364Y542790D01*
X545804Y542213D01*
X545230Y541649D01*
X544642Y541100D01*
X544042Y540565D01*
X543428Y540045D01*
X542801Y539541D01*
X542163Y539052D01*
X541513Y538578D01*
X540851Y538121D01*
X540179Y537680D01*
X539495Y537255D01*
X538802Y536848D01*
X538099Y536457D01*
X537387Y536084D01*
X536665Y535728D01*
X535935Y535390D01*
X535197Y535070D01*
X534452Y534768D01*
X533699Y534484D01*
X532940Y534219D01*
X532174Y533973D01*
X531403Y533745D01*
X530626Y533536D01*
X529844Y533346D01*
X529058Y533176D01*
X528268Y533025D01*
X527475Y532893D01*
X526679Y532780D01*
X525880Y532687D01*
X525079Y532614D01*
X524276Y532560D01*
X523473Y532526D01*
X522668Y532512D01*
X521864Y532517D01*
X521060Y532542D01*
X520257Y532586D01*
X519455Y532650D01*
X518655Y532734D01*
X517858Y532837D01*
X517063Y532960D01*
X516271Y533102D01*
X515483Y533263D01*
X514699Y533444D01*
X513920Y533644D01*
X513146Y533862D01*
X512378Y534100D01*
X511615Y534356D01*
X510860Y534631D01*
X510111Y534925D01*
X509369Y535236D01*
X508635Y535566D01*
X507910Y535913D01*
X507193Y536278D01*
X506486Y536660D01*
X505788Y537060D01*
X505100Y537477D01*
X504422Y537910D01*
X503755Y538360D01*
X503099Y538825D01*
X502455Y539307D01*
X501823Y539805D01*
X501203Y540317D01*
X500596Y540845D01*
X500002Y541387D01*
X499422Y541944D01*
X498855Y542515D01*
X498303Y543099D01*
X497765Y543697D01*
X497241Y544308D01*
X496733Y544931D01*
X496240Y545567D01*
X496432Y545711D01*
X496921Y545080D01*
X497426Y544461D01*
X497945Y543855D01*
X498480Y543261D01*
X499028Y542681D01*
X499591Y542115D01*
X500167Y541562D01*
X500757Y541024D01*
X501359Y540500D01*
X501975Y539991D01*
X502602Y539497D01*
X503241Y539019D01*
X503892Y538556D01*
X504554Y538110D01*
X505227Y537680D01*
X505910Y537266D01*
X506603Y536870D01*
X507305Y536490D01*
X508017Y536128D01*
X508737Y535783D01*
X509465Y535456D01*
X510202Y535147D01*
X510945Y534856D01*
X511695Y534583D01*
X512452Y534328D01*
X513215Y534092D01*
X513983Y533875D01*
X514757Y533677D01*
X515535Y533498D01*
X516317Y533337D01*
X517103Y533196D01*
X517892Y533075D01*
X518684Y532972D01*
X519478Y532889D01*
X520274Y532825D01*
X521071Y532781D01*
X521869Y532757D01*
X522668Y532752D01*
X523466Y532766D01*
X524264Y532800D01*
X525060Y532853D01*
X525855Y532926D01*
X526648Y533018D01*
X527439Y533130D01*
X528227Y533261D01*
X529011Y533411D01*
X529791Y533580D01*
X530567Y533769D01*
X531338Y533976D01*
X532104Y534202D01*
X532864Y534447D01*
X533618Y534710D01*
X534365Y534992D01*
X535105Y535291D01*
X535838Y535609D01*
X536562Y535945D01*
X537278Y536298D01*
X537985Y536668D01*
X538683Y537056D01*
X539372Y537461D01*
X540050Y537882D01*
X540717Y538320D01*
X541374Y538774D01*
X542020Y539244D01*
X542653Y539730D01*
X543275Y540231D01*
X543884Y540747D01*
X544481Y541277D01*
X545064Y541823D01*
X545634Y542382D01*
X546190Y542955D01*
X546732Y543542D01*
X547259Y544141D01*
X547772Y544753D01*
X548269Y545378D01*
X548751Y546015D01*
X549217Y546663D01*
X549667Y547322D01*
X550101Y547992D01*
X550519Y548673D01*
X550920Y549364D01*
X551303Y550064D01*
X551670Y550773D01*
X552019Y551491D01*
X552350Y552218D01*
X552664Y552952D01*
X552959Y553694D01*
X553236Y554443D01*
X553495Y555198D01*
X553735Y555959D01*
X553957Y556726D01*
X554160Y557499D01*
X554343Y558276D01*
X554508Y559057D01*
X554654Y559842D01*
X554780Y560630D01*
X554887Y561422D01*
X554975Y562215D01*
X555043Y563011D01*
X555092Y563808D01*
X555121Y564606D01*
X555131Y565404D01*
X555121Y566202D01*
X555092Y567000D01*
X555043Y567797D01*
X554975Y568593D01*
X554887Y569386D01*
X554780Y570178D01*
X554654Y570966D01*
X554508Y571751D01*
X554343Y572532D01*
X554160Y573309D01*
X553957Y574082D01*
X553735Y574849D01*
X553495Y575610D01*
X553236Y576365D01*
X552959Y577114D01*
X552664Y577856D01*
X552350Y578590D01*
X552019Y579317D01*
X551670Y580035D01*
X551303Y580744D01*
X550920Y581444D01*
X550519Y582135D01*
X550101Y582816D01*
X549667Y583486D01*
X549217Y584145D01*
X548751Y584793D01*
X548269Y585430D01*
X547772Y586055D01*
X547259Y586667D01*
X546732Y587266D01*
X546190Y587853D01*
X545634Y588426D01*
X545064Y588985D01*
X544481Y589531D01*
X543884Y590061D01*
X543275Y590577D01*
X542653Y591078D01*
X542020Y591564D01*
X541374Y592034D01*
X540717Y592488D01*
X540050Y592926D01*
X539372Y593347D01*
X538683Y593752D01*
X537985Y594140D01*
X537278Y594510D01*
X536562Y594863D01*
X535838Y595199D01*
X535105Y595517D01*
X534365Y595816D01*
X533618Y596098D01*
X532864Y596361D01*
X532104Y596606D01*
X531338Y596832D01*
X530567Y597039D01*
X529791Y597228D01*
X529011Y597397D01*
X528227Y597547D01*
X527439Y597678D01*
X526648Y597790D01*
X525855Y597882D01*
X525060Y597955D01*
X524264Y598008D01*
X523466Y598042D01*
X522668Y598056D01*
X521869Y598051D01*
X521071Y598027D01*
X520274Y597983D01*
X519478Y597919D01*
X518684Y597836D01*
X517892Y597733D01*
X517103Y597612D01*
X516317Y597471D01*
X515535Y597310D01*
X514757Y597131D01*
X513983Y596933D01*
X513215Y596716D01*
X512452Y596480D01*
X511695Y596225D01*
X510945Y595952D01*
X510202Y595661D01*
X509465Y595352D01*
X508737Y595025D01*
X508017Y594680D01*
X507305Y594318D01*
X506603Y593938D01*
X505910Y593542D01*
X505227Y593128D01*
X504554Y592698D01*
X503892Y592252D01*
X503241Y591789D01*
X502602Y591311D01*
X501975Y590817D01*
X501359Y590308D01*
X500757Y589784D01*
X500167Y589246D01*
X499591Y588693D01*
X499028Y588127D01*
X498480Y587547D01*
X497945Y586953D01*
X497426Y586347D01*
X496921Y585728D01*
X496432Y585097D01*
X496624Y584953D01*
X497110Y585580D01*
X497611Y586194D01*
X498126Y586796D01*
X498657Y587385D01*
X499201Y587960D01*
X499760Y588523D01*
X500332Y589071D01*
X500917Y589606D01*
X501515Y590126D01*
X502126Y590631D01*
X502749Y591121D01*
X503383Y591596D01*
X504030Y592055D01*
X504687Y592498D01*
X505354Y592925D01*
X506033Y593335D01*
X506720Y593729D01*
X507418Y594106D01*
X508124Y594465D01*
X508839Y594808D01*
X509562Y595132D01*
X510292Y595439D01*
X511030Y595728D01*
X511775Y595999D01*
X512527Y596252D01*
X513284Y596486D01*
X514046Y596701D01*
X514814Y596898D01*
X515587Y597076D01*
X516363Y597235D01*
X517143Y597375D01*
X517926Y597496D01*
X518712Y597598D01*
X519501Y597680D01*
X520291Y597743D01*
X521082Y597787D01*
X521874Y597811D01*
X522667Y597816D01*
X523459Y597802D01*
X524251Y597768D01*
X525042Y597715D01*
X525831Y597643D01*
X526618Y597551D01*
X527403Y597441D01*
X528185Y597311D01*
X528963Y597162D01*
X529738Y596993D01*
X530508Y596807D01*
X531274Y596601D01*
X532034Y596376D01*
X532788Y596134D01*
X533536Y595872D01*
X534278Y595593D01*
X535013Y595295D01*
X535740Y594980D01*
X536459Y594647D01*
X537170Y594296D01*
X537872Y593928D01*
X538565Y593543D01*
X539248Y593142D01*
X539921Y592723D01*
X540584Y592289D01*
X541236Y591838D01*
X541876Y591371D01*
X542505Y590889D01*
X543123Y590392D01*
X543727Y589880D01*
X544319Y589353D01*
X544898Y588812D01*
X545464Y588257D01*
X546016Y587688D01*
X546554Y587106D01*
X547077Y586510D01*
X547586Y585903D01*
X548080Y585283D01*
X548558Y584651D01*
X549021Y584007D01*
X549468Y583353D01*
X549898Y582688D01*
X550313Y582012D01*
X550711Y581326D01*
X551091Y580631D01*
X551455Y579927D01*
X551802Y579214D01*
X552131Y578493D01*
X552442Y577764D01*
X552735Y577028D01*
X553010Y576285D01*
X553267Y575535D01*
X553506Y574779D01*
X553726Y574018D01*
X553927Y573251D01*
X554109Y572480D01*
X554273Y571704D01*
X554417Y570925D01*
X554543Y570142D01*
X554649Y569357D01*
X554736Y568569D01*
X554804Y567780D01*
X554852Y566989D01*
X554881Y566197D01*
X554891Y565404D01*
X554881Y564611D01*
X554852Y563819D01*
X554804Y563028D01*
X554736Y562239D01*
X554649Y561451D01*
X554543Y560666D01*
X554417Y559883D01*
X554273Y559104D01*
X554109Y558328D01*
X553927Y557557D01*
X553726Y556790D01*
X553506Y556029D01*
X553267Y555273D01*
X553010Y554523D01*
X552735Y553780D01*
X552442Y553044D01*
X552131Y552315D01*
X551802Y551594D01*
X551455Y550881D01*
X551091Y550177D01*
X550711Y549482D01*
X550313Y548796D01*
X549898Y548120D01*
X549468Y547455D01*
X549021Y546801D01*
X548558Y546157D01*
X548080Y545525D01*
X547586Y544905D01*
X547077Y544298D01*
X546554Y543702D01*
X546016Y543120D01*
X545464Y542551D01*
X544898Y541996D01*
X544319Y541455D01*
X543727Y540928D01*
X543123Y540416D01*
X542505Y539919D01*
X541876Y539437D01*
X541236Y538970D01*
X540584Y538519D01*
X539921Y538085D01*
X539248Y537666D01*
X538565Y537265D01*
X537872Y536880D01*
X537170Y536512D01*
X536459Y536161D01*
X535740Y535828D01*
X535013Y535513D01*
X534278Y535215D01*
X533536Y534936D01*
X532788Y534674D01*
X532034Y534432D01*
X531274Y534207D01*
X530508Y534001D01*
X529738Y533815D01*
X528963Y533646D01*
X528185Y533497D01*
X527403Y533367D01*
X526618Y533257D01*
X525831Y533165D01*
X525042Y533093D01*
X524251Y533040D01*
X523459Y533006D01*
X522667Y532992D01*
X521874Y532997D01*
X521082Y533021D01*
X520291Y533065D01*
X519501Y533128D01*
X518712Y533210D01*
X517926Y533312D01*
X517143Y533433D01*
X516363Y533573D01*
X515587Y533732D01*
X514814Y533910D01*
X514046Y534107D01*
X513284Y534322D01*
X512527Y534556D01*
X511775Y534809D01*
X511030Y535080D01*
X510292Y535369D01*
X509562Y535676D01*
X508839Y536000D01*
X508124Y536343D01*
X507418Y536702D01*
X506720Y537079D01*
X506033Y537473D01*
X505354Y537883D01*
X504687Y538310D01*
X504030Y538753D01*
X503383Y539212D01*
X502749Y539687D01*
X502126Y540177D01*
X501515Y540682D01*
X500917Y541202D01*
X500332Y541737D01*
X499760Y542285D01*
X499201Y542848D01*
X498657Y543423D01*
X498126Y544012D01*
X497611Y544614D01*
X497110Y545228D01*
X496624Y545855D01*
X496816Y545999D01*
X497298Y545377D01*
X497795Y544767D01*
X498307Y544170D01*
X498834Y543586D01*
X499374Y543014D01*
X499929Y542456D01*
X500496Y541911D01*
X501077Y541381D01*
X501671Y540865D01*
X502277Y540363D01*
X502896Y539877D01*
X503526Y539406D01*
X504167Y538950D01*
X504819Y538510D01*
X505482Y538087D01*
X506155Y537679D01*
X506838Y537288D01*
X507530Y536914D01*
X508231Y536558D01*
X508940Y536218D01*
X509658Y535896D01*
X510383Y535591D01*
X511116Y535304D01*
X511855Y535035D01*
X512601Y534785D01*
X513353Y534552D01*
X514110Y534338D01*
X514872Y534143D01*
X515638Y533966D01*
X516409Y533809D01*
X517183Y533670D01*
X517961Y533550D01*
X518741Y533449D01*
X519523Y533367D01*
X520308Y533304D01*
X521093Y533261D01*
X521879Y533237D01*
X522666Y533232D01*
X523453Y533246D01*
X524239Y533279D01*
X525023Y533332D01*
X525807Y533404D01*
X526588Y533495D01*
X527367Y533605D01*
X528143Y533734D01*
X528916Y533882D01*
X529685Y534049D01*
X530449Y534234D01*
X531209Y534438D01*
X531963Y534661D01*
X532712Y534902D01*
X533455Y535161D01*
X534191Y535439D01*
X534920Y535734D01*
X535642Y536047D01*
X536356Y536378D01*
X537061Y536726D01*
X537758Y537091D01*
X538446Y537473D01*
X539124Y537872D01*
X539792Y538287D01*
X540450Y538719D01*
X541097Y539166D01*
X541733Y539629D01*
X542357Y540108D01*
X542970Y540601D01*
X543570Y541110D01*
X544158Y541633D01*
X544733Y542170D01*
X545294Y542721D01*
X545842Y543285D01*
X546376Y543863D01*
X546895Y544454D01*
X547400Y545057D01*
X547890Y545673D01*
X548365Y546300D01*
X548824Y546939D01*
X549268Y547588D01*
X549696Y548249D01*
X550107Y548919D01*
X550502Y549600D01*
X550880Y550290D01*
X551241Y550989D01*
X551585Y551696D01*
X551911Y552412D01*
X552220Y553135D01*
X552511Y553866D01*
X552784Y554604D01*
X553039Y555348D01*
X553276Y556098D01*
X553494Y556854D01*
X553694Y557615D01*
X553875Y558381D01*
X554037Y559150D01*
X554181Y559924D01*
X554305Y560701D01*
X554411Y561480D01*
X554497Y562262D01*
X554564Y563046D01*
X554613Y563831D01*
X554641Y564617D01*
X554651Y565404D01*
X554641Y566191D01*
X554613Y566977D01*
X554564Y567762D01*
X554497Y568546D01*
X554411Y569328D01*
X554305Y570107D01*
X554181Y570884D01*
X554037Y571658D01*
X553875Y572427D01*
X553694Y573193D01*
X553494Y573954D01*
X553276Y574710D01*
X553039Y575460D01*
X552784Y576204D01*
X552511Y576942D01*
X552220Y577673D01*
X551911Y578396D01*
X551585Y579112D01*
X551241Y579819D01*
X550880Y580518D01*
X550502Y581208D01*
X550107Y581889D01*
X549696Y582559D01*
X549268Y583220D01*
X548824Y583869D01*
X548365Y584508D01*
X547890Y585135D01*
X547400Y585751D01*
X546895Y586354D01*
X546376Y586945D01*
X545842Y587523D01*
X545294Y588087D01*
X544733Y588638D01*
X544158Y589175D01*
X543570Y589698D01*
X542970Y590207D01*
X542357Y590700D01*
X541733Y591179D01*
X541097Y591642D01*
X540450Y592089D01*
X539792Y592521D01*
X539124Y592936D01*
X538446Y593335D01*
X537758Y593717D01*
X537061Y594082D01*
X536356Y594430D01*
X535642Y594761D01*
X534920Y595074D01*
X534191Y595369D01*
X533455Y595647D01*
X532712Y595906D01*
X531963Y596147D01*
X531209Y596370D01*
X530449Y596574D01*
X529685Y596759D01*
X528916Y596926D01*
X528143Y597074D01*
X527367Y597203D01*
X526588Y597313D01*
X525807Y597404D01*
X525023Y597476D01*
X524239Y597529D01*
X523453Y597562D01*
X522666Y597576D01*
X521879Y597571D01*
X521093Y597547D01*
X520308Y597504D01*
X519523Y597441D01*
X518741Y597359D01*
X517961Y597258D01*
X517183Y597138D01*
X516409Y596999D01*
X515638Y596842D01*
X514872Y596665D01*
X514110Y596470D01*
X513353Y596256D01*
X512601Y596023D01*
X511855Y595773D01*
X511116Y595504D01*
X510383Y595217D01*
X509658Y594912D01*
X508940Y594590D01*
X508231Y594250D01*
X507530Y593894D01*
X506838Y593520D01*
X506155Y593129D01*
X505482Y592721D01*
X504819Y592298D01*
X504167Y591858D01*
X503526Y591402D01*
X502896Y590931D01*
X502277Y590445D01*
X501671Y589943D01*
X501077Y589427D01*
X500496Y588897D01*
X499929Y588352D01*
X499374Y587794D01*
X498834Y587222D01*
X498307Y586638D01*
X497795Y586041D01*
X497298Y585431D01*
X496816Y584809D01*
X497008Y584665D01*
X497487Y585282D01*
X497980Y585887D01*
X498488Y586480D01*
X499011Y587060D01*
X499547Y587628D01*
X500097Y588182D01*
X500661Y588722D01*
X501238Y589249D01*
X501827Y589761D01*
X502429Y590258D01*
X503042Y590741D01*
X503668Y591209D01*
X504304Y591661D01*
X504952Y592097D01*
X505609Y592518D01*
X506277Y592922D01*
X506955Y593310D01*
X507642Y593681D01*
X508338Y594036D01*
X509042Y594373D01*
X509754Y594693D01*
X510474Y594995D01*
X511201Y595280D01*
X511935Y595546D01*
X512675Y595795D01*
X513421Y596026D01*
X514173Y596238D01*
X514929Y596432D01*
X515690Y596607D01*
X516455Y596764D01*
X517223Y596902D01*
X517995Y597021D01*
X518769Y597121D01*
X519546Y597202D01*
X520324Y597264D01*
X521104Y597307D01*
X521884Y597331D01*
X522665Y597336D01*
X523446Y597322D01*
X524226Y597289D01*
X525005Y597237D01*
X525783Y597166D01*
X526558Y597075D01*
X527331Y596966D01*
X528102Y596838D01*
X528868Y596691D01*
X529631Y596525D01*
X530390Y596341D01*
X531144Y596139D01*
X531893Y595917D01*
X532636Y595678D01*
X533373Y595421D01*
X534104Y595145D01*
X534828Y594852D01*
X535544Y594541D01*
X536253Y594213D01*
X536953Y593868D01*
X537644Y593505D01*
X538327Y593126D01*
X539000Y592730D01*
X539663Y592318D01*
X540316Y591890D01*
X540958Y591446D01*
X541590Y590986D01*
X542209Y590512D01*
X542817Y590022D01*
X543413Y589517D01*
X543996Y588998D01*
X544567Y588465D01*
X545124Y587918D01*
X545668Y587357D01*
X546198Y586784D01*
X546713Y586197D01*
X547214Y585599D01*
X547701Y584988D01*
X548172Y584365D01*
X548628Y583731D01*
X549068Y583087D01*
X549493Y582431D01*
X549901Y581766D01*
X550293Y581090D01*
X550668Y580405D01*
X551026Y579712D01*
X551368Y579010D01*
X551692Y578299D01*
X551998Y577581D01*
X552287Y576856D01*
X552558Y576123D01*
X552811Y575385D01*
X553046Y574640D01*
X553263Y573890D01*
X553461Y573135D01*
X553641Y572375D01*
X553802Y571611D01*
X553944Y570843D01*
X554068Y570072D01*
X554173Y569298D01*
X554258Y568522D01*
X554325Y567744D01*
X554373Y566965D01*
X554401Y566185D01*
X554411Y565404D01*
X554401Y564623D01*
X554373Y563843D01*
X554325Y563064D01*
X554258Y562286D01*
X554173Y561510D01*
X554068Y560736D01*
X553944Y559965D01*
X553802Y559197D01*
X553641Y558433D01*
X553461Y557673D01*
X553263Y556918D01*
X553046Y556168D01*
X552811Y555423D01*
X552558Y554685D01*
X552287Y553952D01*
X551998Y553227D01*
X551692Y552509D01*
X551368Y551798D01*
X551026Y551096D01*
X550668Y550403D01*
X550293Y549718D01*
X549901Y549042D01*
X549493Y548377D01*
X549068Y547721D01*
X548628Y547077D01*
X548172Y546443D01*
X547701Y545820D01*
X547214Y545209D01*
X546713Y544611D01*
X546198Y544024D01*
X545668Y543451D01*
X545124Y542890D01*
X544567Y542343D01*
X543996Y541810D01*
X543413Y541291D01*
X542817Y540786D01*
X542209Y540296D01*
X541590Y539822D01*
X540958Y539362D01*
X540316Y538918D01*
X539663Y538490D01*
X539000Y538078D01*
X538327Y537682D01*
X537644Y537303D01*
X536953Y536940D01*
X536253Y536595D01*
X535544Y536267D01*
X534828Y535956D01*
X534104Y535663D01*
X533373Y535387D01*
X532636Y535130D01*
X531893Y534891D01*
X531144Y534669D01*
X530390Y534467D01*
X529631Y534283D01*
X528868Y534117D01*
X528102Y533970D01*
X527331Y533842D01*
X526558Y533733D01*
X525783Y533642D01*
X525005Y533571D01*
X524226Y533519D01*
X523446Y533486D01*
X522665Y533472D01*
X521884Y533477D01*
X521104Y533501D01*
X520324Y533544D01*
X519546Y533606D01*
X518769Y533687D01*
X517995Y533787D01*
X517223Y533906D01*
X516455Y534044D01*
X515690Y534201D01*
X514929Y534376D01*
X514173Y534570D01*
X513421Y534782D01*
X512675Y535013D01*
X511935Y535262D01*
X511201Y535528D01*
X510474Y535813D01*
X509754Y536115D01*
X509042Y536435D01*
X508338Y536772D01*
X507642Y537127D01*
X506955Y537498D01*
X506277Y537886D01*
X505609Y538290D01*
X504952Y538711D01*
X504304Y539147D01*
X503668Y539599D01*
X503042Y540067D01*
X502429Y540550D01*
X501827Y541047D01*
X501238Y541559D01*
X500661Y542086D01*
X500097Y542626D01*
X499547Y543180D01*
X499011Y543748D01*
X498488Y544328D01*
X497980Y544921D01*
X497487Y545526D01*
X497008Y546143D01*
X497200Y546287D01*
X497675Y545674D01*
X498165Y545074D01*
X498669Y544486D01*
X499188Y543910D01*
X499720Y543347D01*
X500266Y542797D01*
X500826Y542261D01*
X501398Y541738D01*
X501983Y541230D01*
X502580Y540736D01*
X503189Y540257D01*
X503810Y539793D01*
X504441Y539344D01*
X505084Y538911D01*
X505737Y538493D01*
X506400Y538092D01*
X507072Y537707D01*
X507754Y537339D01*
X508445Y536987D01*
X509144Y536653D01*
X509851Y536335D01*
X510565Y536035D01*
X511287Y535753D01*
X512015Y535488D01*
X512750Y535241D01*
X513490Y535012D01*
X514236Y534802D01*
X514986Y534609D01*
X515742Y534435D01*
X516501Y534280D01*
X517264Y534143D01*
X518029Y534025D01*
X518798Y533925D01*
X519569Y533845D01*
X520341Y533783D01*
X521115Y533740D01*
X521889Y533716D01*
X522664Y533712D01*
X523439Y533726D01*
X524213Y533759D01*
X524987Y533810D01*
X525758Y533881D01*
X526528Y533971D01*
X527295Y534079D01*
X528060Y534206D01*
X528821Y534352D01*
X529578Y534517D01*
X530331Y534699D01*
X531080Y534901D01*
X531823Y535120D01*
X532560Y535358D01*
X533292Y535613D01*
X534017Y535886D01*
X534735Y536177D01*
X535446Y536486D01*
X536149Y536811D01*
X536844Y537154D01*
X537531Y537514D01*
X538208Y537890D01*
X538876Y538283D01*
X539534Y538692D01*
X540182Y539117D01*
X540820Y539558D01*
X541446Y540014D01*
X542061Y540485D01*
X542665Y540972D01*
X543256Y541472D01*
X543835Y541988D01*
X544401Y542517D01*
X544954Y543060D01*
X545494Y543616D01*
X546020Y544185D01*
X546531Y544767D01*
X547029Y545361D01*
X547511Y545968D01*
X547979Y546585D01*
X548432Y547214D01*
X548869Y547854D01*
X549290Y548505D01*
X549695Y549166D01*
X550084Y549836D01*
X550456Y550515D01*
X550812Y551204D01*
X551151Y551901D01*
X551472Y552606D01*
X551776Y553319D01*
X552063Y554039D01*
X552332Y554765D01*
X552583Y555498D01*
X552816Y556237D01*
X553031Y556982D01*
X553228Y557731D01*
X553407Y558486D01*
X553567Y559244D01*
X553708Y560006D01*
X553831Y560771D01*
X553934Y561539D01*
X554020Y562309D01*
X554086Y563081D01*
X554133Y563855D01*
X554162Y564629D01*
X554171Y565404D01*
X554162Y566179D01*
X554133Y566953D01*
X554086Y567727D01*
X554020Y568499D01*
X553934Y569269D01*
X553831Y570037D01*
X553708Y570802D01*
X553567Y571564D01*
X553407Y572322D01*
X553228Y573077D01*
X553031Y573826D01*
X552816Y574571D01*
X552583Y575310D01*
X552332Y576043D01*
X552063Y576769D01*
X551776Y577489D01*
X551472Y578202D01*
X551151Y578907D01*
X550812Y579604D01*
X550456Y580293D01*
X550084Y580972D01*
X549695Y581642D01*
X549290Y582303D01*
X548869Y582954D01*
X548432Y583594D01*
X547979Y584223D01*
X547511Y584840D01*
X547029Y585447D01*
X546531Y586041D01*
X546020Y586623D01*
X545494Y587192D01*
X544954Y587748D01*
X544401Y588291D01*
X543835Y588820D01*
X543256Y589336D01*
X542665Y589836D01*
X542061Y590323D01*
X541446Y590794D01*
X540820Y591250D01*
X540182Y591691D01*
X539534Y592116D01*
X538876Y592525D01*
X538208Y592918D01*
X537531Y593294D01*
X536844Y593654D01*
X536149Y593997D01*
X535446Y594322D01*
X534735Y594631D01*
X534017Y594922D01*
X533292Y595195D01*
X532560Y595450D01*
X531823Y595688D01*
X531080Y595907D01*
X530331Y596109D01*
X529578Y596291D01*
X528821Y596456D01*
X528060Y596602D01*
X527295Y596729D01*
X526528Y596837D01*
X525758Y596927D01*
X524987Y596998D01*
X524213Y597049D01*
X523439Y597082D01*
X522664Y597096D01*
X521889Y597092D01*
X521115Y597068D01*
X520341Y597025D01*
X519569Y596963D01*
X518798Y596883D01*
X518029Y596783D01*
X517264Y596665D01*
X516501Y596528D01*
X515742Y596373D01*
X514986Y596199D01*
X514236Y596006D01*
X513490Y595796D01*
X512750Y595567D01*
X512015Y595320D01*
X511287Y595055D01*
X510565Y594773D01*
X509851Y594473D01*
X509144Y594155D01*
X508445Y593821D01*
X507754Y593469D01*
X507072Y593101D01*
X506400Y592716D01*
X505737Y592315D01*
X505084Y591897D01*
X504441Y591464D01*
X503810Y591015D01*
X503189Y590551D01*
X502580Y590072D01*
X501983Y589578D01*
X501398Y589070D01*
X500826Y588547D01*
X500266Y588011D01*
X499720Y587461D01*
X499188Y586898D01*
X498669Y586322D01*
X498165Y585734D01*
X497675Y585134D01*
X497200Y584521D01*
X497392Y584377D01*
X497863Y584985D01*
X498349Y585581D01*
X498850Y586165D01*
X499365Y586736D01*
X499893Y587295D01*
X500435Y587841D01*
X500990Y588373D01*
X501558Y588891D01*
X502139Y589396D01*
X502731Y589886D01*
X503336Y590361D01*
X503952Y590822D01*
X504579Y591267D01*
X505216Y591697D01*
X505864Y592111D01*
X506522Y592509D01*
X507190Y592891D01*
X507866Y593257D01*
X508552Y593606D01*
X509245Y593938D01*
X509947Y594253D01*
X510656Y594551D01*
X511372Y594831D01*
X512095Y595094D01*
X512824Y595339D01*
X513559Y595566D01*
X514299Y595775D01*
X515044Y595966D01*
X515793Y596138D01*
X516547Y596293D01*
X517304Y596428D01*
X518064Y596546D01*
X518826Y596644D01*
X519591Y596724D01*
X520358Y596785D01*
X521126Y596828D01*
X521895Y596852D01*
X522664Y596856D01*
X523432Y596843D01*
X524201Y596810D01*
X524968Y596758D01*
X525734Y596688D01*
X526498Y596599D01*
X527259Y596491D01*
X528018Y596365D01*
X528773Y596221D01*
X529525Y596057D01*
X530272Y595876D01*
X531015Y595676D01*
X531752Y595459D01*
X532485Y595223D01*
X533211Y594969D01*
X533930Y594698D01*
X534643Y594409D01*
X535349Y594103D01*
X536046Y593780D01*
X536736Y593440D01*
X537417Y593083D01*
X538089Y592709D01*
X538752Y592319D01*
X539406Y591913D01*
X540049Y591492D01*
X540681Y591054D01*
X541303Y590601D01*
X541913Y590134D01*
X542512Y589651D01*
X543099Y589154D01*
X543673Y588643D01*
X544235Y588118D01*
X544784Y587579D01*
X545320Y587027D01*
X545841Y586462D01*
X546349Y585885D01*
X546843Y585295D01*
X547322Y584693D01*
X547786Y584080D01*
X548235Y583456D01*
X548669Y582820D01*
X549087Y582175D01*
X549489Y581519D01*
X549875Y580854D01*
X550244Y580180D01*
X550597Y579496D01*
X550933Y578805D01*
X551253Y578105D01*
X551555Y577398D01*
X551839Y576683D01*
X552106Y575962D01*
X552355Y575234D01*
X552587Y574501D01*
X552800Y573762D01*
X552995Y573018D01*
X553172Y572270D01*
X553331Y571517D01*
X553471Y570761D01*
X553593Y570002D01*
X553696Y569240D01*
X553781Y568475D01*
X553846Y567709D01*
X553893Y566942D01*
X553922Y566173D01*
X553931Y565404D01*
X553922Y564635D01*
X553893Y563866D01*
X553846Y563099D01*
X553781Y562333D01*
X553696Y561568D01*
X553593Y560806D01*
X553471Y560047D01*
X553331Y559291D01*
X553172Y558538D01*
X552995Y557790D01*
X552800Y557046D01*
X552587Y556307D01*
X552355Y555574D01*
X552106Y554846D01*
X551839Y554125D01*
X551555Y553410D01*
X551253Y552703D01*
X550933Y552003D01*
X550597Y551312D01*
X550244Y550628D01*
X549875Y549954D01*
X549489Y549289D01*
X549087Y548633D01*
X548669Y547988D01*
X548235Y547352D01*
X547786Y546728D01*
X547322Y546115D01*
X546843Y545513D01*
X546349Y544923D01*
X545841Y544346D01*
X545320Y543781D01*
X544784Y543229D01*
X544235Y542690D01*
X543673Y542165D01*
X543099Y541654D01*
X542512Y541157D01*
X541913Y540674D01*
X541303Y540207D01*
X540681Y539754D01*
X540049Y539316D01*
X539406Y538895D01*
X538752Y538489D01*
X538089Y538099D01*
X537417Y537725D01*
X536736Y537368D01*
X536046Y537028D01*
X535349Y536705D01*
X534643Y536399D01*
X533930Y536110D01*
X533211Y535839D01*
X532485Y535585D01*
X531752Y535349D01*
X531015Y535132D01*
X530272Y534932D01*
X529525Y534751D01*
X528773Y534587D01*
X528018Y534443D01*
X527259Y534317D01*
X526498Y534209D01*
X525734Y534120D01*
X524968Y534050D01*
X524201Y533998D01*
X523432Y533965D01*
X522664Y533952D01*
X521895Y533956D01*
X521126Y533980D01*
X520358Y534023D01*
X519591Y534084D01*
X518826Y534164D01*
X518064Y534262D01*
X517304Y534380D01*
X516547Y534515D01*
X515793Y534670D01*
X515044Y534842D01*
X514299Y535033D01*
X513559Y535242D01*
X512824Y535469D01*
X512095Y535714D01*
X511372Y535977D01*
X510656Y536257D01*
X509947Y536555D01*
X509245Y536870D01*
X508552Y537202D01*
X507866Y537551D01*
X507190Y537917D01*
X506522Y538299D01*
X505864Y538697D01*
X505216Y539111D01*
X504579Y539541D01*
X503952Y539986D01*
X503336Y540447D01*
X502731Y540922D01*
X502139Y541412D01*
X501558Y541917D01*
X500990Y542435D01*
X500435Y542967D01*
X499893Y543513D01*
X499365Y544072D01*
X498850Y544643D01*
X498349Y545227D01*
X497863Y545823D01*
X497392Y546431D01*
X497584Y546575D01*
X498052Y545972D01*
X498534Y545380D01*
X499031Y544801D01*
X499542Y544234D01*
X500066Y543679D01*
X500604Y543138D01*
X501155Y542610D01*
X501718Y542095D01*
X502295Y541595D01*
X502883Y541108D01*
X503483Y540637D01*
X504094Y540180D01*
X504716Y539738D01*
X505349Y539311D01*
X505992Y538900D01*
X506645Y538505D01*
X507307Y538126D01*
X507979Y537763D01*
X508659Y537417D01*
X509347Y537087D01*
X510043Y536775D01*
X510747Y536479D01*
X511458Y536201D01*
X512175Y535940D01*
X512898Y535697D01*
X513628Y535472D01*
X514362Y535265D01*
X515101Y535075D01*
X515845Y534904D01*
X516593Y534751D01*
X517344Y534616D01*
X518098Y534500D01*
X518855Y534402D01*
X519614Y534323D01*
X520375Y534262D01*
X521137Y534220D01*
X521900Y534196D01*
X522663Y534192D01*
X523426Y534205D01*
X524188Y534238D01*
X524950Y534289D01*
X525710Y534359D01*
X526468Y534447D01*
X527223Y534554D01*
X527976Y534679D01*
X528726Y534823D01*
X529472Y534985D01*
X530213Y535165D01*
X530950Y535363D01*
X531682Y535579D01*
X532409Y535813D01*
X533129Y536065D01*
X533843Y536334D01*
X534551Y536620D01*
X535251Y536924D01*
X535943Y537245D01*
X536628Y537582D01*
X537304Y537937D01*
X537971Y538307D01*
X538629Y538694D01*
X539277Y539097D01*
X539915Y539516D01*
X540543Y539950D01*
X541160Y540399D01*
X541765Y540863D01*
X542360Y541342D01*
X542942Y541835D01*
X543512Y542343D01*
X544070Y542864D01*
X544614Y543398D01*
X545146Y543946D01*
X545663Y544507D01*
X546167Y545080D01*
X546657Y545665D01*
X547133Y546262D01*
X547593Y546871D01*
X548039Y547490D01*
X548469Y548121D01*
X548884Y548761D01*
X549283Y549412D01*
X549666Y550072D01*
X550033Y550741D01*
X550383Y551419D01*
X550716Y552106D01*
X551033Y552800D01*
X551333Y553502D01*
X551615Y554211D01*
X551880Y554927D01*
X552127Y555649D01*
X552357Y556377D01*
X552569Y557110D01*
X552763Y557848D01*
X552938Y558591D01*
X553096Y559337D01*
X553235Y560088D01*
X553356Y560841D01*
X553458Y561598D01*
X553542Y562356D01*
X553607Y563116D01*
X553654Y563878D01*
X553682Y564641D01*
X553691Y565404D01*
X553682Y566167D01*
X553654Y566930D01*
X553607Y567692D01*
X553542Y568452D01*
X553458Y569210D01*
X553356Y569967D01*
X553235Y570720D01*
X553096Y571471D01*
X552938Y572217D01*
X552763Y572960D01*
X552569Y573698D01*
X552357Y574431D01*
X552127Y575159D01*
X551880Y575881D01*
X551615Y576597D01*
X551333Y577306D01*
X551033Y578008D01*
X550716Y578702D01*
X550383Y579389D01*
X550033Y580067D01*
X549666Y580736D01*
X549283Y581396D01*
X548884Y582047D01*
X548469Y582687D01*
X548039Y583318D01*
X547593Y583937D01*
X547133Y584546D01*
X546657Y585143D01*
X546167Y585728D01*
X545663Y586301D01*
X545146Y586862D01*
X544614Y587410D01*
X544070Y587944D01*
X543512Y588465D01*
X542942Y588973D01*
X542360Y589466D01*
X541765Y589945D01*
X541160Y590409D01*
X540543Y590858D01*
X539915Y591292D01*
X539277Y591711D01*
X538629Y592114D01*
X537971Y592501D01*
X537304Y592871D01*
X536628Y593226D01*
X535943Y593563D01*
X535251Y593884D01*
X534551Y594188D01*
X533843Y594474D01*
X533129Y594743D01*
X532409Y594995D01*
X531682Y595229D01*
X530950Y595445D01*
X530213Y595643D01*
X529472Y595823D01*
X528726Y595985D01*
X527976Y596129D01*
X527223Y596254D01*
X526468Y596361D01*
X525710Y596449D01*
X524950Y596519D01*
X524188Y596570D01*
X523426Y596603D01*
X522663Y596616D01*
X521900Y596612D01*
X521137Y596588D01*
X520375Y596546D01*
X519614Y596485D01*
X518855Y596406D01*
X518098Y596308D01*
X517344Y596192D01*
X516593Y596057D01*
X515845Y595904D01*
X515101Y595733D01*
X514362Y595543D01*
X513628Y595336D01*
X512898Y595111D01*
X512175Y594868D01*
X511458Y594607D01*
X510747Y594329D01*
X510043Y594033D01*
X509347Y593721D01*
X508659Y593391D01*
X507979Y593045D01*
X507307Y592682D01*
X506645Y592303D01*
X505992Y591908D01*
X505349Y591497D01*
X504716Y591070D01*
X504094Y590628D01*
X503483Y590171D01*
X502883Y589700D01*
X502295Y589213D01*
X501718Y588713D01*
X501155Y588198D01*
X500604Y587670D01*
X500066Y587129D01*
X499542Y586574D01*
X499031Y586007D01*
X498534Y585428D01*
X498052Y584836D01*
X497584Y584233D01*
X497776Y584089D01*
X498240Y584688D01*
X498719Y585274D01*
X499212Y585849D01*
X499719Y586412D01*
X500239Y586962D01*
X500773Y587499D01*
X501319Y588024D01*
X501879Y588534D01*
X502450Y589031D01*
X503034Y589513D01*
X503629Y589981D01*
X504236Y590435D01*
X504853Y590873D01*
X505481Y591297D01*
X506119Y591705D01*
X506767Y592097D01*
X507425Y592473D01*
X508091Y592833D01*
X508766Y593176D01*
X509449Y593503D01*
X510140Y593813D01*
X510838Y594107D01*
X511543Y594383D01*
X512255Y594641D01*
X512973Y594882D01*
X513696Y595106D01*
X514425Y595312D01*
X515159Y595500D01*
X515897Y595670D01*
X516639Y595822D01*
X517384Y595955D01*
X518132Y596071D01*
X518883Y596168D01*
X519637Y596246D01*
X520392Y596307D01*
X521148Y596348D01*
X521905Y596372D01*
X522662Y596376D01*
X523419Y596363D01*
X524176Y596330D01*
X524931Y596280D01*
X525685Y596210D01*
X526438Y596123D01*
X527188Y596017D01*
X527935Y595893D01*
X528678Y595750D01*
X529418Y595589D01*
X530154Y595411D01*
X530886Y595214D01*
X531612Y595000D01*
X532333Y594767D01*
X533048Y594518D01*
X533756Y594251D01*
X534458Y593966D01*
X535153Y593665D01*
X535840Y593346D01*
X536519Y593011D01*
X537190Y592660D01*
X537852Y592292D01*
X538505Y591908D01*
X539148Y591508D01*
X539781Y591093D01*
X540404Y590662D01*
X541016Y590217D01*
X541617Y589756D01*
X542207Y589281D01*
X542785Y588791D01*
X543351Y588288D01*
X543904Y587771D01*
X544444Y587240D01*
X544971Y586697D01*
X545485Y586140D01*
X545985Y585572D01*
X546471Y584991D01*
X546943Y584398D01*
X547400Y583795D01*
X547842Y583180D01*
X548269Y582554D01*
X548681Y581919D01*
X549077Y581273D01*
X549457Y580618D01*
X549821Y579954D01*
X550168Y579281D01*
X550499Y578600D01*
X550814Y577911D01*
X551111Y577214D01*
X551391Y576511D01*
X551654Y575801D01*
X551899Y575084D01*
X552127Y574362D01*
X552337Y573634D01*
X552530Y572902D01*
X552704Y572165D01*
X552860Y571424D01*
X552998Y570679D01*
X553118Y569932D01*
X553220Y569181D01*
X553303Y568428D01*
X553368Y567674D01*
X553414Y566918D01*
X553442Y566161D01*
X553451Y565404D01*
X553442Y564647D01*
X553414Y563890D01*
X553368Y563134D01*
X553303Y562380D01*
X553220Y561627D01*
X553118Y560876D01*
X552998Y560129D01*
X552860Y559384D01*
X552704Y558643D01*
X552530Y557906D01*
X552337Y557174D01*
X552127Y556446D01*
X551899Y555724D01*
X551654Y555007D01*
X551391Y554297D01*
X551111Y553594D01*
X550814Y552897D01*
X550499Y552208D01*
X550168Y551527D01*
X549821Y550854D01*
X549457Y550190D01*
X549077Y549535D01*
X548681Y548889D01*
X548269Y548254D01*
X547842Y547628D01*
X547400Y547013D01*
X546943Y546410D01*
X546471Y545817D01*
X545985Y545236D01*
X545485Y544668D01*
X544971Y544111D01*
X544444Y543568D01*
X543904Y543037D01*
X543351Y542520D01*
X542785Y542017D01*
X542207Y541527D01*
X541617Y541052D01*
X541016Y540591D01*
X540404Y540146D01*
X539781Y539715D01*
X539148Y539300D01*
X538505Y538900D01*
X537852Y538516D01*
X537190Y538148D01*
X536519Y537797D01*
X535840Y537462D01*
X535153Y537143D01*
X534458Y536842D01*
X533756Y536557D01*
X533048Y536290D01*
X532333Y536041D01*
X531612Y535808D01*
X530886Y535594D01*
X530154Y535397D01*
X529418Y535219D01*
X528678Y535058D01*
X527935Y534915D01*
X527188Y534791D01*
X526438Y534685D01*
X525685Y534598D01*
X524931Y534528D01*
X524176Y534478D01*
X523419Y534445D01*
X522662Y534432D01*
X521905Y534436D01*
X521148Y534460D01*
X520392Y534501D01*
X519637Y534562D01*
X518883Y534640D01*
X518132Y534737D01*
X517384Y534853D01*
X516639Y534986D01*
X515897Y535138D01*
X515159Y535308D01*
X514425Y535496D01*
X513696Y535702D01*
X512973Y535926D01*
X512255Y536167D01*
X511543Y536425D01*
X510838Y536701D01*
X510140Y536995D01*
X509449Y537305D01*
X508766Y537632D01*
X508091Y537975D01*
X507425Y538335D01*
X506767Y538711D01*
X506119Y539103D01*
X505481Y539511D01*
X504853Y539935D01*
X504236Y540373D01*
X503629Y540827D01*
X503034Y541295D01*
X502450Y541777D01*
X501879Y542274D01*
X501319Y542784D01*
X500773Y543309D01*
X500239Y543846D01*
X499719Y544396D01*
X499212Y544959D01*
X498719Y545534D01*
X498240Y546120D01*
X497776Y546719D01*
X497968Y546863D01*
X498429Y546269D01*
X498904Y545687D01*
X499393Y545116D01*
X499896Y544558D01*
X500412Y544012D01*
X500942Y543479D01*
X501484Y542959D01*
X502039Y542453D01*
X502606Y541960D01*
X503185Y541481D01*
X503776Y541016D01*
X504378Y540566D01*
X504991Y540131D01*
X505614Y539711D01*
X506247Y539307D01*
X506890Y538918D01*
X507542Y538545D01*
X508203Y538187D01*
X508873Y537847D01*
X509550Y537522D01*
X510236Y537214D01*
X510929Y536924D01*
X511629Y536650D01*
X512335Y536393D01*
X513047Y536154D01*
X513765Y535932D01*
X514488Y535728D01*
X515216Y535541D01*
X515948Y535373D01*
X516685Y535222D01*
X517424Y535089D01*
X518167Y534975D01*
X518912Y534879D01*
X519659Y534801D01*
X520408Y534741D01*
X521159Y534699D01*
X521910Y534676D01*
X522661Y534672D01*
X523412Y534685D01*
X524163Y534717D01*
X524913Y534768D01*
X525661Y534836D01*
X526408Y534923D01*
X527152Y535028D01*
X527893Y535152D01*
X528631Y535293D01*
X529365Y535453D01*
X530095Y535630D01*
X530821Y535825D01*
X531542Y536038D01*
X532257Y536268D01*
X532966Y536516D01*
X533669Y536781D01*
X534366Y537063D01*
X535055Y537362D01*
X535737Y537678D01*
X536411Y538011D01*
X537076Y538359D01*
X537733Y538724D01*
X538381Y539105D01*
X539019Y539502D01*
X539647Y539914D01*
X540265Y540342D01*
X540873Y540784D01*
X541469Y541241D01*
X542054Y541713D01*
X542628Y542198D01*
X543189Y542698D01*
X543738Y543211D01*
X544274Y543737D01*
X544797Y544277D01*
X545307Y544829D01*
X545803Y545393D01*
X546286Y545969D01*
X546754Y546557D01*
X547207Y547156D01*
X547646Y547766D01*
X548070Y548387D01*
X548478Y549018D01*
X548871Y549658D01*
X549248Y550308D01*
X549609Y550967D01*
X549954Y551635D01*
X550282Y552311D01*
X550594Y552994D01*
X550889Y553685D01*
X551167Y554383D01*
X551428Y555088D01*
X551671Y555799D01*
X551898Y556516D01*
X552106Y557237D01*
X552297Y557964D01*
X552470Y558695D01*
X552625Y559431D01*
X552762Y560170D01*
X552881Y560912D01*
X552982Y561656D01*
X553064Y562403D01*
X553128Y563152D01*
X553174Y563902D01*
X553202Y564653D01*
X553211Y565404D01*
X553202Y566155D01*
X553174Y566906D01*
X553128Y567656D01*
X553064Y568405D01*
X552982Y569152D01*
X552881Y569896D01*
X552762Y570638D01*
X552625Y571377D01*
X552470Y572113D01*
X552297Y572844D01*
X552106Y573571D01*
X551898Y574292D01*
X551671Y575009D01*
X551428Y575720D01*
X551167Y576425D01*
X550889Y577123D01*
X550594Y577814D01*
X550282Y578497D01*
X549954Y579173D01*
X549609Y579841D01*
X549248Y580500D01*
X548871Y581150D01*
X548478Y581790D01*
X548070Y582421D01*
X547646Y583042D01*
X547207Y583652D01*
X546754Y584251D01*
X546286Y584839D01*
X545803Y585415D01*
X545307Y585979D01*
X544797Y586531D01*
X544274Y587071D01*
X543738Y587597D01*
X543189Y588110D01*
X542628Y588610D01*
X542054Y589095D01*
X541469Y589567D01*
X540873Y590024D01*
X540265Y590466D01*
X539647Y590894D01*
X539019Y591306D01*
X538381Y591703D01*
X537733Y592084D01*
X537076Y592449D01*
X536411Y592797D01*
X535737Y593130D01*
X535055Y593446D01*
X534366Y593745D01*
X533669Y594027D01*
X532966Y594292D01*
X532257Y594540D01*
X531542Y594770D01*
X530821Y594983D01*
X530095Y595178D01*
X529365Y595355D01*
X528631Y595515D01*
X527893Y595656D01*
X527152Y595780D01*
X526408Y595885D01*
X525661Y595972D01*
X524913Y596040D01*
X524163Y596091D01*
X523412Y596123D01*
X522661Y596136D01*
X521910Y596132D01*
X521159Y596109D01*
X520408Y596067D01*
X519659Y596007D01*
X518912Y595929D01*
X518167Y595833D01*
X517424Y595719D01*
X516685Y595586D01*
X515948Y595435D01*
X515216Y595267D01*
X514488Y595080D01*
X513765Y594876D01*
X513047Y594654D01*
X512335Y594415D01*
X511629Y594158D01*
X510929Y593884D01*
X510236Y593594D01*
X509550Y593286D01*
X508873Y592961D01*
X508203Y592621D01*
X507542Y592263D01*
X506890Y591890D01*
X506247Y591501D01*
X505614Y591097D01*
X504991Y590677D01*
X504378Y590242D01*
X503776Y589792D01*
X503185Y589327D01*
X502606Y588848D01*
X502039Y588355D01*
X501484Y587849D01*
X500942Y587329D01*
X500412Y586796D01*
X499896Y586250D01*
X499393Y585692D01*
X498904Y585121D01*
X498429Y584539D01*
X497968Y583945D01*
D10*
X497078Y565404D02*
X497086Y566027D01*
X497109Y566650D01*
X497147Y567273D01*
X497200Y567894D01*
X497269Y568513D01*
X497353Y569131D01*
X497452Y569746D01*
X497566Y570359D01*
X497695Y570969D01*
X497839Y571576D01*
X497998Y572179D01*
X498172Y572777D01*
X498360Y573372D01*
X498563Y573961D01*
X498780Y574545D01*
X499011Y575124D01*
X499257Y575697D01*
X499517Y576264D01*
X499790Y576824D01*
X500077Y577377D01*
X500378Y577924D01*
X500692Y578462D01*
X501019Y578993D01*
X501359Y579515D01*
X501711Y580030D01*
X502077Y580535D01*
X502454Y581031D01*
X502844Y581518D01*
X503245Y581995D01*
X503658Y582462D01*
X504082Y582918D01*
X504517Y583365D01*
X504964Y583800D01*
X505420Y584224D01*
X505887Y584637D01*
X506364Y585038D01*
X506851Y585428D01*
X507347Y585805D01*
X507852Y586171D01*
X508367Y586523D01*
X508889Y586863D01*
X509420Y587190D01*
X509958Y587504D01*
X510505Y587805D01*
X511058Y588092D01*
X511618Y588365D01*
X512185Y588625D01*
X512758Y588871D01*
X513337Y589102D01*
X513921Y589319D01*
X514510Y589522D01*
X515105Y589710D01*
X515703Y589884D01*
X516306Y590043D01*
X516913Y590187D01*
X517523Y590316D01*
X518136Y590430D01*
X518751Y590529D01*
X519369Y590613D01*
X519988Y590682D01*
X520609Y590735D01*
X521232Y590773D01*
X521855Y590796D01*
X522478Y590804D01*
X523101Y590796D01*
X523724Y590773D01*
X524347Y590735D01*
X524968Y590682D01*
X525587Y590613D01*
X526205Y590529D01*
X526820Y590430D01*
X527433Y590316D01*
X528043Y590187D01*
X528650Y590043D01*
X529253Y589884D01*
X529851Y589710D01*
X530446Y589522D01*
X531035Y589319D01*
X531619Y589102D01*
X532198Y588871D01*
X532771Y588625D01*
X533338Y588365D01*
X533898Y588092D01*
X534451Y587805D01*
X534998Y587504D01*
X535536Y587190D01*
X536067Y586863D01*
X536589Y586523D01*
X537104Y586171D01*
X537609Y585805D01*
X538105Y585428D01*
X538592Y585038D01*
X539069Y584637D01*
X539536Y584224D01*
X539992Y583800D01*
X540439Y583365D01*
X540874Y582918D01*
X541298Y582462D01*
X541711Y581995D01*
X542112Y581518D01*
X542502Y581031D01*
X542879Y580535D01*
X543245Y580030D01*
X543597Y579515D01*
X543937Y578993D01*
X544264Y578462D01*
X544578Y577924D01*
X544879Y577377D01*
X545166Y576824D01*
X545439Y576264D01*
X545699Y575697D01*
X545945Y575124D01*
X546176Y574545D01*
X546393Y573961D01*
X546596Y573372D01*
X546784Y572777D01*
X546958Y572179D01*
X547117Y571576D01*
X547261Y570969D01*
X547390Y570359D01*
X547504Y569746D01*
X547603Y569131D01*
X547687Y568513D01*
X547756Y567894D01*
X547809Y567273D01*
X547847Y566650D01*
X547870Y566027D01*
X547878Y565404D01*
X547870Y564781D01*
X547847Y564158D01*
X547809Y563535D01*
X547756Y562914D01*
X547687Y562295D01*
X547603Y561677D01*
X547504Y561062D01*
X547390Y560449D01*
X547261Y559839D01*
X547117Y559232D01*
X546958Y558629D01*
X546784Y558031D01*
X546596Y557436D01*
X546393Y556847D01*
X546176Y556263D01*
X545945Y555684D01*
X545699Y555111D01*
X545439Y554544D01*
X545166Y553984D01*
X544879Y553431D01*
X544578Y552884D01*
X544264Y552346D01*
X543937Y551815D01*
X543597Y551293D01*
X543245Y550778D01*
X542879Y550273D01*
X542502Y549777D01*
X542112Y549290D01*
X541711Y548813D01*
X541298Y548346D01*
X540874Y547890D01*
X540439Y547443D01*
X539992Y547008D01*
X539536Y546584D01*
X539069Y546171D01*
X538592Y545770D01*
X538105Y545380D01*
X537609Y545003D01*
X537104Y544637D01*
X536589Y544285D01*
X536067Y543945D01*
X535536Y543618D01*
X534998Y543304D01*
X534451Y543003D01*
X533898Y542716D01*
X533338Y542443D01*
X532771Y542183D01*
X532198Y541937D01*
X531619Y541706D01*
X531035Y541489D01*
X530446Y541286D01*
X529851Y541098D01*
X529253Y540924D01*
X528650Y540765D01*
X528043Y540621D01*
X527433Y540492D01*
X526820Y540378D01*
X526205Y540279D01*
X525587Y540195D01*
X524968Y540126D01*
X524347Y540073D01*
X523724Y540035D01*
X523101Y540012D01*
X522478Y540004D01*
X521855Y540012D01*
X521232Y540035D01*
X520609Y540073D01*
X519988Y540126D01*
X519369Y540195D01*
X518751Y540279D01*
X518136Y540378D01*
X517523Y540492D01*
X516913Y540621D01*
X516306Y540765D01*
X515703Y540924D01*
X515105Y541098D01*
X514510Y541286D01*
X513921Y541489D01*
X513337Y541706D01*
X512758Y541937D01*
X512185Y542183D01*
X511618Y542443D01*
X511058Y542716D01*
X510505Y543003D01*
X509958Y543304D01*
X509420Y543618D01*
X508889Y543945D01*
X508367Y544285D01*
X507852Y544637D01*
X507347Y545003D01*
X506851Y545380D01*
X506364Y545770D01*
X505887Y546171D01*
X505420Y546584D01*
X504964Y547008D01*
X504517Y547443D01*
X504082Y547890D01*
X503658Y548346D01*
X503245Y548813D01*
X502844Y549290D01*
X502454Y549777D01*
X502077Y550273D01*
X501711Y550778D01*
X501359Y551293D01*
X501019Y551815D01*
X500692Y552346D01*
X500378Y552884D01*
X500077Y553431D01*
X499790Y553984D01*
X499517Y554544D01*
X499257Y555111D01*
X499011Y555684D01*
X498780Y556263D01*
X498563Y556847D01*
X498360Y557436D01*
X498172Y558031D01*
X497998Y558629D01*
X497839Y559232D01*
X497695Y559839D01*
X497566Y560449D01*
X497452Y561062D01*
X497353Y561677D01*
X497269Y562295D01*
X497200Y562914D01*
X497147Y563535D01*
X497109Y564158D01*
X497086Y564781D01*
X497078Y565404D01*
D12*
X471851Y567690D02*
X471851Y558546D01*
X475915Y558546D01*
X479776Y558546D02*
X483840Y558546D01*
X479776Y558546D02*
X479776Y567690D01*
X483840Y567690D01*
X482824Y563626D02*
X479776Y563626D01*
X487680Y567690D02*
X487680Y558546D01*
X487680Y567690D02*
X490220Y567690D01*
X490320Y567688D01*
X490419Y567682D01*
X490519Y567672D01*
X490617Y567659D01*
X490716Y567641D01*
X490813Y567620D01*
X490909Y567595D01*
X491005Y567566D01*
X491099Y567533D01*
X491192Y567497D01*
X491283Y567457D01*
X491373Y567413D01*
X491461Y567366D01*
X491547Y567316D01*
X491631Y567262D01*
X491713Y567205D01*
X491792Y567145D01*
X491870Y567081D01*
X491944Y567015D01*
X492016Y566946D01*
X492085Y566874D01*
X492151Y566800D01*
X492215Y566722D01*
X492275Y566643D01*
X492332Y566561D01*
X492386Y566477D01*
X492436Y566391D01*
X492483Y566303D01*
X492527Y566213D01*
X492567Y566122D01*
X492603Y566029D01*
X492636Y565935D01*
X492665Y565839D01*
X492690Y565743D01*
X492711Y565646D01*
X492729Y565547D01*
X492742Y565449D01*
X492752Y565349D01*
X492758Y565250D01*
X492760Y565150D01*
X492760Y561086D01*
X492758Y560986D01*
X492752Y560887D01*
X492742Y560787D01*
X492729Y560689D01*
X492711Y560590D01*
X492690Y560493D01*
X492665Y560397D01*
X492636Y560301D01*
X492603Y560207D01*
X492567Y560114D01*
X492527Y560023D01*
X492483Y559933D01*
X492436Y559845D01*
X492386Y559759D01*
X492332Y559675D01*
X492275Y559593D01*
X492215Y559514D01*
X492151Y559436D01*
X492085Y559362D01*
X492016Y559290D01*
X491944Y559221D01*
X491870Y559155D01*
X491792Y559091D01*
X491713Y559031D01*
X491631Y558974D01*
X491547Y558920D01*
X491461Y558870D01*
X491373Y558823D01*
X491283Y558779D01*
X491192Y558739D01*
X491099Y558703D01*
X491005Y558670D01*
X490909Y558641D01*
X490813Y558616D01*
X490716Y558595D01*
X490617Y558577D01*
X490519Y558564D01*
X490419Y558554D01*
X490320Y558548D01*
X490220Y558546D01*
X487680Y558546D01*
D10*
X523240Y485140D02*
X523242Y485040D01*
X523248Y484941D01*
X523258Y484841D01*
X523271Y484743D01*
X523289Y484644D01*
X523310Y484547D01*
X523335Y484451D01*
X523364Y484355D01*
X523397Y484261D01*
X523433Y484168D01*
X523473Y484077D01*
X523517Y483987D01*
X523564Y483899D01*
X523614Y483813D01*
X523668Y483729D01*
X523725Y483647D01*
X523785Y483568D01*
X523849Y483490D01*
X523915Y483416D01*
X523984Y483344D01*
X524056Y483275D01*
X524130Y483209D01*
X524208Y483145D01*
X524287Y483085D01*
X524369Y483028D01*
X524453Y482974D01*
X524539Y482924D01*
X524627Y482877D01*
X524717Y482833D01*
X524808Y482793D01*
X524901Y482757D01*
X524995Y482724D01*
X525091Y482695D01*
X525187Y482670D01*
X525284Y482649D01*
X525383Y482631D01*
X525481Y482618D01*
X525581Y482608D01*
X525680Y482602D01*
X525780Y482600D01*
X541020Y482600D02*
X541120Y482602D01*
X541219Y482608D01*
X541319Y482618D01*
X541417Y482631D01*
X541516Y482649D01*
X541613Y482670D01*
X541709Y482695D01*
X541805Y482724D01*
X541899Y482757D01*
X541992Y482793D01*
X542083Y482833D01*
X542173Y482877D01*
X542261Y482924D01*
X542347Y482974D01*
X542431Y483028D01*
X542513Y483085D01*
X542592Y483145D01*
X542670Y483209D01*
X542744Y483275D01*
X542816Y483344D01*
X542885Y483416D01*
X542951Y483490D01*
X543015Y483568D01*
X543075Y483647D01*
X543132Y483729D01*
X543186Y483813D01*
X543236Y483899D01*
X543283Y483987D01*
X543327Y484077D01*
X543367Y484168D01*
X543403Y484261D01*
X543436Y484355D01*
X543465Y484451D01*
X543490Y484547D01*
X543511Y484644D01*
X543529Y484743D01*
X543542Y484841D01*
X543552Y484941D01*
X543558Y485040D01*
X543560Y485140D01*
X543560Y530860D02*
X543558Y530960D01*
X543552Y531059D01*
X543542Y531159D01*
X543529Y531257D01*
X543511Y531356D01*
X543490Y531453D01*
X543465Y531549D01*
X543436Y531645D01*
X543403Y531739D01*
X543367Y531832D01*
X543327Y531923D01*
X543283Y532013D01*
X543236Y532101D01*
X543186Y532187D01*
X543132Y532271D01*
X543075Y532353D01*
X543015Y532432D01*
X542951Y532510D01*
X542885Y532584D01*
X542816Y532656D01*
X542744Y532725D01*
X542670Y532791D01*
X542592Y532855D01*
X542513Y532915D01*
X542431Y532972D01*
X542347Y533026D01*
X542261Y533076D01*
X542173Y533123D01*
X542083Y533167D01*
X541992Y533207D01*
X541899Y533243D01*
X541805Y533276D01*
X541709Y533305D01*
X541613Y533330D01*
X541516Y533351D01*
X541417Y533369D01*
X541319Y533382D01*
X541219Y533392D01*
X541120Y533398D01*
X541020Y533400D01*
X525780Y533400D02*
X525680Y533398D01*
X525581Y533392D01*
X525481Y533382D01*
X525383Y533369D01*
X525284Y533351D01*
X525187Y533330D01*
X525091Y533305D01*
X524995Y533276D01*
X524901Y533243D01*
X524808Y533207D01*
X524717Y533167D01*
X524627Y533123D01*
X524539Y533076D01*
X524453Y533026D01*
X524369Y532972D01*
X524287Y532915D01*
X524208Y532855D01*
X524130Y532791D01*
X524056Y532725D01*
X523984Y532656D01*
X523915Y532584D01*
X523849Y532510D01*
X523785Y532432D01*
X523725Y532353D01*
X523668Y532271D01*
X523614Y532187D01*
X523564Y532101D01*
X523517Y532013D01*
X523473Y531923D01*
X523433Y531832D01*
X523397Y531739D01*
X523364Y531645D01*
X523335Y531549D01*
X523310Y531453D01*
X523289Y531356D01*
X523271Y531257D01*
X523258Y531159D01*
X523248Y531059D01*
X523242Y530960D01*
X523240Y530860D01*
X525780Y482600D02*
X541020Y482600D01*
X523240Y485140D02*
X523240Y488950D01*
X524510Y490220D01*
X543560Y488950D02*
X543560Y485140D01*
X543560Y488950D02*
X542290Y490220D01*
X524510Y525780D02*
X523240Y527050D01*
X524510Y525780D02*
X524510Y490220D01*
X542290Y525780D02*
X543560Y527050D01*
X542290Y525780D02*
X542290Y490220D01*
X523240Y527050D02*
X523240Y530860D01*
X543560Y530860D02*
X543560Y527050D01*
X541020Y533400D02*
X525780Y533400D01*
D15*
X533400Y535305D03*
X533400Y480695D03*
D16*
X521806Y457835D02*
X521806Y448945D01*
X521806Y457835D02*
X524275Y457835D01*
X524373Y457833D01*
X524471Y457827D01*
X524569Y457817D01*
X524666Y457804D01*
X524763Y457786D01*
X524859Y457765D01*
X524953Y457740D01*
X525047Y457711D01*
X525140Y457679D01*
X525231Y457642D01*
X525321Y457603D01*
X525409Y457559D01*
X525495Y457512D01*
X525580Y457462D01*
X525662Y457409D01*
X525742Y457352D01*
X525820Y457292D01*
X525895Y457229D01*
X525968Y457163D01*
X526038Y457094D01*
X526105Y457023D01*
X526170Y456949D01*
X526231Y456872D01*
X526290Y456793D01*
X526345Y456712D01*
X526397Y456629D01*
X526445Y456543D01*
X526490Y456456D01*
X526532Y456367D01*
X526570Y456277D01*
X526604Y456185D01*
X526635Y456092D01*
X526662Y455997D01*
X526685Y455902D01*
X526705Y455805D01*
X526720Y455709D01*
X526732Y455611D01*
X526740Y455513D01*
X526744Y455415D01*
X526744Y455317D01*
X526740Y455219D01*
X526732Y455121D01*
X526720Y455023D01*
X526705Y454927D01*
X526685Y454830D01*
X526662Y454735D01*
X526635Y454640D01*
X526604Y454547D01*
X526570Y454455D01*
X526532Y454365D01*
X526490Y454276D01*
X526445Y454189D01*
X526397Y454103D01*
X526345Y454020D01*
X526290Y453939D01*
X526231Y453860D01*
X526170Y453783D01*
X526105Y453709D01*
X526038Y453638D01*
X525968Y453569D01*
X525895Y453503D01*
X525820Y453440D01*
X525742Y453380D01*
X525662Y453323D01*
X525580Y453270D01*
X525495Y453220D01*
X525409Y453173D01*
X525321Y453129D01*
X525231Y453090D01*
X525140Y453053D01*
X525047Y453021D01*
X524953Y452992D01*
X524859Y452967D01*
X524763Y452946D01*
X524666Y452928D01*
X524569Y452915D01*
X524471Y452905D01*
X524373Y452899D01*
X524275Y452897D01*
X524275Y452896D02*
X521806Y452896D01*
X524769Y452896D02*
X526744Y448945D01*
X530874Y455859D02*
X533344Y457835D01*
X533344Y448945D01*
X535813Y448945D02*
X530874Y448945D01*
D17*
X514350Y504952D02*
X508000Y504952D01*
X514350Y504952D02*
X520700Y504952D01*
D10*
X514350Y504952D02*
X514350Y492760D01*
D17*
X514350Y511302D02*
X508000Y511302D01*
X514350Y511302D02*
X520700Y511302D01*
D10*
X514350Y511302D02*
X514350Y523240D01*
X504190Y471170D02*
X524510Y471170D01*
X527050Y473710D02*
X527050Y542290D01*
X524510Y544830D02*
X504190Y544830D01*
X501650Y542290D02*
X501650Y473710D01*
X501650Y542290D02*
X501652Y542390D01*
X501658Y542489D01*
X501668Y542589D01*
X501681Y542687D01*
X501699Y542786D01*
X501720Y542883D01*
X501745Y542979D01*
X501774Y543075D01*
X501807Y543169D01*
X501843Y543262D01*
X501883Y543353D01*
X501927Y543443D01*
X501974Y543531D01*
X502024Y543617D01*
X502078Y543701D01*
X502135Y543783D01*
X502195Y543862D01*
X502259Y543940D01*
X502325Y544014D01*
X502394Y544086D01*
X502466Y544155D01*
X502540Y544221D01*
X502618Y544285D01*
X502697Y544345D01*
X502779Y544402D01*
X502863Y544456D01*
X502949Y544506D01*
X503037Y544553D01*
X503127Y544597D01*
X503218Y544637D01*
X503311Y544673D01*
X503405Y544706D01*
X503501Y544735D01*
X503597Y544760D01*
X503694Y544781D01*
X503793Y544799D01*
X503891Y544812D01*
X503991Y544822D01*
X504090Y544828D01*
X504190Y544830D01*
X524510Y544830D02*
X524610Y544828D01*
X524709Y544822D01*
X524809Y544812D01*
X524907Y544799D01*
X525006Y544781D01*
X525103Y544760D01*
X525199Y544735D01*
X525295Y544706D01*
X525389Y544673D01*
X525482Y544637D01*
X525573Y544597D01*
X525663Y544553D01*
X525751Y544506D01*
X525837Y544456D01*
X525921Y544402D01*
X526003Y544345D01*
X526082Y544285D01*
X526160Y544221D01*
X526234Y544155D01*
X526306Y544086D01*
X526375Y544014D01*
X526441Y543940D01*
X526505Y543862D01*
X526565Y543783D01*
X526622Y543701D01*
X526676Y543617D01*
X526726Y543531D01*
X526773Y543443D01*
X526817Y543353D01*
X526857Y543262D01*
X526893Y543169D01*
X526926Y543075D01*
X526955Y542979D01*
X526980Y542883D01*
X527001Y542786D01*
X527019Y542687D01*
X527032Y542589D01*
X527042Y542489D01*
X527048Y542390D01*
X527050Y542290D01*
X527050Y473710D02*
X527048Y473610D01*
X527042Y473511D01*
X527032Y473411D01*
X527019Y473313D01*
X527001Y473214D01*
X526980Y473117D01*
X526955Y473021D01*
X526926Y472925D01*
X526893Y472831D01*
X526857Y472738D01*
X526817Y472647D01*
X526773Y472557D01*
X526726Y472469D01*
X526676Y472383D01*
X526622Y472299D01*
X526565Y472217D01*
X526505Y472138D01*
X526441Y472060D01*
X526375Y471986D01*
X526306Y471914D01*
X526234Y471845D01*
X526160Y471779D01*
X526082Y471715D01*
X526003Y471655D01*
X525921Y471598D01*
X525837Y471544D01*
X525751Y471494D01*
X525663Y471447D01*
X525573Y471403D01*
X525482Y471363D01*
X525389Y471327D01*
X525295Y471294D01*
X525199Y471265D01*
X525103Y471240D01*
X525006Y471219D01*
X524907Y471201D01*
X524809Y471188D01*
X524709Y471178D01*
X524610Y471172D01*
X524510Y471170D01*
X504190Y471170D02*
X504090Y471172D01*
X503991Y471178D01*
X503891Y471188D01*
X503793Y471201D01*
X503694Y471219D01*
X503597Y471240D01*
X503501Y471265D01*
X503405Y471294D01*
X503311Y471327D01*
X503218Y471363D01*
X503127Y471403D01*
X503037Y471447D01*
X502949Y471494D01*
X502863Y471544D01*
X502779Y471598D01*
X502697Y471655D01*
X502618Y471715D01*
X502540Y471779D01*
X502466Y471845D01*
X502394Y471914D01*
X502325Y471986D01*
X502259Y472060D01*
X502195Y472138D01*
X502135Y472217D01*
X502078Y472299D01*
X502024Y472383D01*
X501974Y472469D01*
X501927Y472557D01*
X501883Y472647D01*
X501843Y472738D01*
X501807Y472831D01*
X501774Y472925D01*
X501745Y473021D01*
X501720Y473117D01*
X501699Y473214D01*
X501681Y473313D01*
X501668Y473411D01*
X501658Y473511D01*
X501652Y473610D01*
X501650Y473710D01*
D12*
X506954Y458216D02*
X508986Y458216D01*
X506954Y458216D02*
X506865Y458218D01*
X506777Y458224D01*
X506689Y458233D01*
X506601Y458247D01*
X506514Y458264D01*
X506428Y458285D01*
X506343Y458310D01*
X506259Y458339D01*
X506176Y458371D01*
X506095Y458406D01*
X506016Y458446D01*
X505938Y458488D01*
X505862Y458534D01*
X505788Y458583D01*
X505717Y458636D01*
X505648Y458691D01*
X505581Y458750D01*
X505517Y458811D01*
X505456Y458875D01*
X505397Y458942D01*
X505342Y459011D01*
X505289Y459082D01*
X505240Y459156D01*
X505194Y459232D01*
X505152Y459310D01*
X505112Y459389D01*
X505077Y459470D01*
X505045Y459553D01*
X505016Y459637D01*
X504991Y459722D01*
X504970Y459808D01*
X504953Y459895D01*
X504939Y459983D01*
X504930Y460071D01*
X504924Y460159D01*
X504922Y460248D01*
X504922Y465328D01*
X504924Y465417D01*
X504930Y465505D01*
X504939Y465593D01*
X504953Y465681D01*
X504970Y465768D01*
X504991Y465854D01*
X505016Y465939D01*
X505045Y466023D01*
X505077Y466106D01*
X505112Y466187D01*
X505152Y466266D01*
X505194Y466344D01*
X505240Y466420D01*
X505289Y466494D01*
X505342Y466565D01*
X505397Y466634D01*
X505456Y466701D01*
X505517Y466765D01*
X505581Y466826D01*
X505648Y466885D01*
X505717Y466940D01*
X505788Y466993D01*
X505862Y467042D01*
X505938Y467088D01*
X506016Y467130D01*
X506095Y467170D01*
X506176Y467205D01*
X506259Y467237D01*
X506343Y467266D01*
X506428Y467291D01*
X506514Y467312D01*
X506601Y467329D01*
X506689Y467343D01*
X506777Y467352D01*
X506865Y467358D01*
X506954Y467360D01*
X508986Y467360D01*
X515366Y467360D02*
X515460Y467358D01*
X515555Y467352D01*
X515649Y467342D01*
X515742Y467329D01*
X515835Y467311D01*
X515927Y467290D01*
X516018Y467265D01*
X516108Y467236D01*
X516197Y467204D01*
X516284Y467167D01*
X516370Y467128D01*
X516454Y467084D01*
X516536Y467038D01*
X516616Y466988D01*
X516694Y466934D01*
X516770Y466878D01*
X516843Y466818D01*
X516914Y466756D01*
X516982Y466690D01*
X517048Y466622D01*
X517110Y466551D01*
X517170Y466478D01*
X517226Y466402D01*
X517280Y466324D01*
X517330Y466244D01*
X517376Y466162D01*
X517420Y466078D01*
X517459Y465992D01*
X517496Y465905D01*
X517528Y465816D01*
X517557Y465726D01*
X517582Y465635D01*
X517603Y465543D01*
X517621Y465450D01*
X517634Y465357D01*
X517644Y465263D01*
X517650Y465168D01*
X517652Y465074D01*
X515366Y467360D02*
X515260Y467358D01*
X515155Y467352D01*
X515050Y467343D01*
X514945Y467330D01*
X514841Y467313D01*
X514738Y467292D01*
X514635Y467268D01*
X514533Y467239D01*
X514433Y467208D01*
X514333Y467172D01*
X514235Y467134D01*
X514139Y467091D01*
X514043Y467045D01*
X513950Y466996D01*
X513859Y466944D01*
X513769Y466888D01*
X513681Y466829D01*
X513596Y466767D01*
X513513Y466702D01*
X513432Y466634D01*
X513354Y466563D01*
X513279Y466489D01*
X513206Y466413D01*
X513136Y466334D01*
X513069Y466253D01*
X513004Y466169D01*
X512943Y466083D01*
X512885Y465995D01*
X512830Y465905D01*
X512779Y465813D01*
X512730Y465719D01*
X512685Y465623D01*
X512644Y465526D01*
X512606Y465428D01*
X512572Y465328D01*
X516890Y463296D02*
X516957Y463363D01*
X517022Y463432D01*
X517084Y463504D01*
X517143Y463577D01*
X517199Y463654D01*
X517253Y463732D01*
X517303Y463812D01*
X517350Y463894D01*
X517394Y463978D01*
X517434Y464064D01*
X517472Y464151D01*
X517506Y464239D01*
X517536Y464329D01*
X517563Y464419D01*
X517587Y464511D01*
X517607Y464604D01*
X517623Y464697D01*
X517636Y464791D01*
X517645Y464885D01*
X517650Y464979D01*
X517652Y465074D01*
X516890Y463296D02*
X512572Y458216D01*
X517652Y458216D01*
D16*
X579120Y485140D02*
X579120Y541020D01*
X579120Y485140D02*
X576580Y482600D01*
X579120Y480060D01*
X579120Y424180D01*
X574040Y424180D01*
X574040Y429260D01*
X543560Y429260D01*
X543560Y424180D01*
X538480Y424180D01*
X538480Y480060D01*
X541020Y482600D01*
X538480Y485140D01*
X538480Y541020D01*
X543560Y541020D01*
X543560Y535940D01*
X574040Y535940D01*
X574040Y541020D01*
X579120Y541020D01*
X568960Y505460D02*
X568960Y459740D01*
X548640Y459740D01*
X548640Y505460D01*
X568960Y505460D01*
X568960Y502920D02*
X548640Y502920D01*
X548640Y500380D02*
X568960Y500380D01*
X568960Y497840D02*
X548640Y497840D01*
X548640Y495300D02*
X568960Y495300D01*
X568960Y492760D02*
X548640Y492760D01*
X548640Y490220D02*
X568960Y490220D01*
X568960Y487680D02*
X548640Y487680D01*
D11*
X559322Y418521D02*
X559320Y418432D01*
X559314Y418344D01*
X559305Y418256D01*
X559292Y418168D01*
X559275Y418081D01*
X559255Y417995D01*
X559230Y417910D01*
X559203Y417825D01*
X559171Y417742D01*
X559137Y417661D01*
X559098Y417581D01*
X559057Y417503D01*
X559012Y417426D01*
X558964Y417352D01*
X558913Y417279D01*
X558859Y417209D01*
X558801Y417142D01*
X558741Y417076D01*
X558679Y417014D01*
X558613Y416954D01*
X558546Y416896D01*
X558476Y416842D01*
X558403Y416791D01*
X558329Y416743D01*
X558252Y416698D01*
X558174Y416657D01*
X558094Y416618D01*
X558013Y416584D01*
X557930Y416552D01*
X557845Y416525D01*
X557760Y416500D01*
X557674Y416480D01*
X557587Y416463D01*
X557499Y416450D01*
X557411Y416441D01*
X557323Y416435D01*
X557234Y416433D01*
X557105Y416435D01*
X556976Y416441D01*
X556847Y416450D01*
X556719Y416463D01*
X556591Y416480D01*
X556464Y416501D01*
X556337Y416525D01*
X556211Y416553D01*
X556086Y416585D01*
X555962Y416620D01*
X555839Y416659D01*
X555717Y416702D01*
X555597Y416748D01*
X555478Y416798D01*
X555360Y416851D01*
X555244Y416907D01*
X555130Y416967D01*
X555017Y417030D01*
X554907Y417097D01*
X554798Y417166D01*
X554692Y417239D01*
X554587Y417315D01*
X554485Y417394D01*
X554386Y417476D01*
X554288Y417560D01*
X554193Y417648D01*
X554101Y417738D01*
X554362Y423743D02*
X554364Y423832D01*
X554370Y423920D01*
X554379Y424008D01*
X554392Y424096D01*
X554409Y424183D01*
X554429Y424269D01*
X554454Y424354D01*
X554481Y424439D01*
X554513Y424522D01*
X554547Y424603D01*
X554586Y424683D01*
X554627Y424761D01*
X554672Y424838D01*
X554720Y424912D01*
X554771Y424985D01*
X554825Y425055D01*
X554883Y425122D01*
X554943Y425188D01*
X555005Y425250D01*
X555071Y425310D01*
X555138Y425368D01*
X555208Y425422D01*
X555281Y425473D01*
X555355Y425521D01*
X555432Y425566D01*
X555510Y425607D01*
X555590Y425646D01*
X555671Y425680D01*
X555754Y425712D01*
X555839Y425739D01*
X555924Y425764D01*
X556010Y425784D01*
X556097Y425801D01*
X556185Y425814D01*
X556273Y425823D01*
X556361Y425829D01*
X556450Y425831D01*
X556570Y425829D01*
X556690Y425824D01*
X556810Y425814D01*
X556929Y425802D01*
X557048Y425785D01*
X557166Y425765D01*
X557284Y425741D01*
X557400Y425714D01*
X557516Y425683D01*
X557631Y425649D01*
X557745Y425611D01*
X557858Y425569D01*
X557969Y425524D01*
X558079Y425476D01*
X558187Y425425D01*
X558294Y425370D01*
X558399Y425312D01*
X558502Y425250D01*
X558603Y425186D01*
X558703Y425118D01*
X558800Y425048D01*
X555406Y421916D02*
X555328Y421964D01*
X555252Y422016D01*
X555179Y422070D01*
X555108Y422128D01*
X555039Y422189D01*
X554973Y422253D01*
X554910Y422320D01*
X554850Y422389D01*
X554793Y422461D01*
X554739Y422535D01*
X554689Y422612D01*
X554641Y422691D01*
X554598Y422771D01*
X554557Y422854D01*
X554521Y422938D01*
X554488Y423023D01*
X554459Y423110D01*
X554433Y423199D01*
X554411Y423288D01*
X554394Y423378D01*
X554380Y423468D01*
X554370Y423560D01*
X554364Y423651D01*
X554362Y423743D01*
X558278Y420348D02*
X558356Y420300D01*
X558432Y420248D01*
X558505Y420194D01*
X558576Y420136D01*
X558645Y420075D01*
X558711Y420011D01*
X558774Y419944D01*
X558834Y419875D01*
X558891Y419803D01*
X558945Y419729D01*
X558995Y419652D01*
X559043Y419573D01*
X559086Y419493D01*
X559127Y419410D01*
X559163Y419326D01*
X559196Y419241D01*
X559225Y419154D01*
X559251Y419065D01*
X559273Y418976D01*
X559290Y418886D01*
X559304Y418796D01*
X559314Y418704D01*
X559320Y418613D01*
X559322Y418521D01*
X558278Y420349D02*
X555406Y421915D01*
X562940Y423743D02*
X565551Y425831D01*
X565551Y416433D01*
X568161Y416433D02*
X562940Y416433D01*
D10*
X450850Y419100D02*
X444500Y412750D01*
X450850Y419100D02*
X463550Y419100D01*
X469900Y412750D01*
X469900Y400050D01*
X463550Y393700D01*
X450850Y393700D01*
X444500Y400050D01*
X412750Y419100D02*
X400050Y419100D01*
X412750Y419100D02*
X419100Y412750D01*
X419100Y400050D01*
X412750Y393700D01*
X419100Y412750D02*
X425450Y419100D01*
X438150Y419100D01*
X444500Y412750D01*
X444500Y400050D01*
X438150Y393700D01*
X425450Y393700D01*
X419100Y400050D01*
X393700Y400050D02*
X393700Y412750D01*
X400050Y419100D01*
X393700Y400050D02*
X400050Y393700D01*
X412750Y393700D01*
X476250Y419100D02*
X488950Y419100D01*
X495300Y412750D01*
X495300Y400050D01*
X488950Y393700D01*
X469900Y412750D02*
X476250Y419100D01*
X469900Y400050D02*
X476250Y393700D01*
X488950Y393700D01*
D12*
X429006Y384556D02*
X429004Y384467D01*
X428998Y384379D01*
X428989Y384291D01*
X428975Y384203D01*
X428958Y384116D01*
X428937Y384030D01*
X428912Y383945D01*
X428883Y383861D01*
X428851Y383778D01*
X428816Y383697D01*
X428776Y383618D01*
X428734Y383540D01*
X428688Y383464D01*
X428639Y383390D01*
X428586Y383319D01*
X428531Y383250D01*
X428472Y383183D01*
X428411Y383119D01*
X428347Y383058D01*
X428280Y382999D01*
X428211Y382944D01*
X428140Y382891D01*
X428066Y382842D01*
X427990Y382796D01*
X427912Y382754D01*
X427833Y382714D01*
X427752Y382679D01*
X427669Y382647D01*
X427585Y382618D01*
X427500Y382593D01*
X427414Y382572D01*
X427327Y382555D01*
X427239Y382541D01*
X427151Y382532D01*
X427063Y382526D01*
X426974Y382524D01*
X426844Y382526D01*
X426713Y382532D01*
X426583Y382542D01*
X426454Y382556D01*
X426325Y382573D01*
X426196Y382595D01*
X426068Y382621D01*
X425941Y382650D01*
X425815Y382683D01*
X425690Y382720D01*
X425566Y382761D01*
X425444Y382806D01*
X425323Y382854D01*
X425203Y382906D01*
X425085Y382962D01*
X424969Y383021D01*
X424855Y383084D01*
X424742Y383150D01*
X424632Y383219D01*
X424524Y383292D01*
X424418Y383368D01*
X424314Y383447D01*
X424213Y383529D01*
X424115Y383615D01*
X424019Y383703D01*
X423926Y383794D01*
X424180Y389636D02*
X424182Y389725D01*
X424188Y389813D01*
X424197Y389901D01*
X424211Y389989D01*
X424228Y390076D01*
X424249Y390162D01*
X424274Y390247D01*
X424303Y390331D01*
X424335Y390414D01*
X424370Y390495D01*
X424410Y390574D01*
X424452Y390652D01*
X424498Y390728D01*
X424547Y390802D01*
X424600Y390873D01*
X424655Y390942D01*
X424714Y391009D01*
X424775Y391073D01*
X424839Y391134D01*
X424906Y391193D01*
X424975Y391248D01*
X425046Y391301D01*
X425120Y391350D01*
X425196Y391396D01*
X425274Y391438D01*
X425353Y391478D01*
X425434Y391513D01*
X425517Y391545D01*
X425601Y391574D01*
X425686Y391599D01*
X425772Y391620D01*
X425859Y391637D01*
X425947Y391651D01*
X426035Y391660D01*
X426123Y391666D01*
X426212Y391668D01*
X426335Y391666D01*
X426457Y391660D01*
X426579Y391650D01*
X426701Y391636D01*
X426822Y391619D01*
X426943Y391597D01*
X427063Y391572D01*
X427182Y391542D01*
X427300Y391509D01*
X427417Y391472D01*
X427532Y391432D01*
X427647Y391388D01*
X427760Y391340D01*
X427871Y391288D01*
X427980Y391233D01*
X428088Y391174D01*
X428194Y391112D01*
X428297Y391047D01*
X428399Y390978D01*
X428498Y390906D01*
X425196Y387858D02*
X425120Y387905D01*
X425046Y387955D01*
X424975Y388008D01*
X424906Y388065D01*
X424839Y388124D01*
X424775Y388186D01*
X424713Y388251D01*
X424655Y388319D01*
X424600Y388389D01*
X424547Y388461D01*
X424498Y388535D01*
X424452Y388612D01*
X424409Y388690D01*
X424370Y388771D01*
X424334Y388853D01*
X424302Y388936D01*
X424274Y389020D01*
X424249Y389106D01*
X424228Y389193D01*
X424211Y389281D01*
X424197Y389369D01*
X424188Y389458D01*
X424182Y389547D01*
X424180Y389636D01*
X427990Y386334D02*
X428066Y386287D01*
X428140Y386237D01*
X428211Y386184D01*
X428280Y386127D01*
X428347Y386068D01*
X428411Y386006D01*
X428473Y385941D01*
X428531Y385873D01*
X428586Y385803D01*
X428639Y385731D01*
X428688Y385657D01*
X428734Y385580D01*
X428777Y385502D01*
X428816Y385421D01*
X428852Y385339D01*
X428884Y385256D01*
X428912Y385172D01*
X428937Y385086D01*
X428958Y384999D01*
X428975Y384911D01*
X428989Y384823D01*
X428998Y384734D01*
X429004Y384645D01*
X429006Y384556D01*
X427990Y386334D02*
X425196Y387858D01*
X433090Y382524D02*
X437154Y382524D01*
X433090Y382524D02*
X433090Y391668D01*
X437154Y391668D01*
X436138Y387604D02*
X433090Y387604D01*
X440995Y391668D02*
X440995Y382524D01*
X446075Y382524D02*
X440995Y391668D01*
X446075Y391668D02*
X446075Y382524D01*
X453187Y382524D02*
X453276Y382526D01*
X453364Y382532D01*
X453452Y382541D01*
X453540Y382555D01*
X453627Y382572D01*
X453713Y382593D01*
X453798Y382618D01*
X453882Y382647D01*
X453965Y382679D01*
X454046Y382714D01*
X454125Y382754D01*
X454203Y382796D01*
X454279Y382842D01*
X454353Y382891D01*
X454424Y382944D01*
X454493Y382999D01*
X454560Y383058D01*
X454624Y383119D01*
X454685Y383183D01*
X454744Y383250D01*
X454799Y383319D01*
X454852Y383390D01*
X454901Y383464D01*
X454947Y383540D01*
X454989Y383618D01*
X455029Y383697D01*
X455064Y383778D01*
X455096Y383861D01*
X455125Y383945D01*
X455150Y384030D01*
X455171Y384116D01*
X455188Y384203D01*
X455202Y384291D01*
X455211Y384379D01*
X455217Y384467D01*
X455219Y384556D01*
X453187Y382524D02*
X453057Y382526D01*
X452926Y382532D01*
X452796Y382542D01*
X452667Y382556D01*
X452538Y382573D01*
X452409Y382595D01*
X452281Y382621D01*
X452154Y382650D01*
X452028Y382683D01*
X451903Y382720D01*
X451779Y382761D01*
X451657Y382806D01*
X451536Y382854D01*
X451416Y382906D01*
X451298Y382962D01*
X451182Y383021D01*
X451068Y383084D01*
X450955Y383150D01*
X450845Y383219D01*
X450737Y383292D01*
X450631Y383368D01*
X450527Y383447D01*
X450426Y383529D01*
X450328Y383615D01*
X450232Y383703D01*
X450139Y383794D01*
X450393Y389636D02*
X450395Y389725D01*
X450401Y389813D01*
X450410Y389901D01*
X450424Y389989D01*
X450441Y390076D01*
X450462Y390162D01*
X450487Y390247D01*
X450516Y390331D01*
X450548Y390414D01*
X450583Y390495D01*
X450623Y390574D01*
X450665Y390652D01*
X450711Y390728D01*
X450760Y390802D01*
X450813Y390873D01*
X450868Y390942D01*
X450927Y391009D01*
X450988Y391073D01*
X451052Y391134D01*
X451119Y391193D01*
X451188Y391248D01*
X451259Y391301D01*
X451333Y391350D01*
X451409Y391396D01*
X451487Y391438D01*
X451566Y391478D01*
X451647Y391513D01*
X451730Y391545D01*
X451814Y391574D01*
X451899Y391599D01*
X451985Y391620D01*
X452072Y391637D01*
X452160Y391651D01*
X452248Y391660D01*
X452336Y391666D01*
X452425Y391668D01*
X452548Y391666D01*
X452670Y391660D01*
X452792Y391650D01*
X452914Y391636D01*
X453035Y391619D01*
X453156Y391597D01*
X453276Y391572D01*
X453395Y391542D01*
X453513Y391509D01*
X453630Y391472D01*
X453745Y391432D01*
X453860Y391388D01*
X453973Y391340D01*
X454084Y391288D01*
X454193Y391233D01*
X454301Y391174D01*
X454407Y391112D01*
X454510Y391047D01*
X454612Y390978D01*
X454711Y390906D01*
X451408Y387858D02*
X451332Y387905D01*
X451258Y387955D01*
X451187Y388008D01*
X451118Y388065D01*
X451051Y388124D01*
X450987Y388186D01*
X450925Y388251D01*
X450867Y388319D01*
X450812Y388389D01*
X450759Y388461D01*
X450710Y388535D01*
X450664Y388612D01*
X450621Y388690D01*
X450582Y388771D01*
X450546Y388853D01*
X450514Y388936D01*
X450486Y389020D01*
X450461Y389106D01*
X450440Y389193D01*
X450423Y389281D01*
X450409Y389369D01*
X450400Y389458D01*
X450394Y389547D01*
X450392Y389636D01*
X454203Y386334D02*
X454279Y386287D01*
X454353Y386237D01*
X454424Y386184D01*
X454493Y386127D01*
X454560Y386068D01*
X454624Y386006D01*
X454686Y385941D01*
X454744Y385873D01*
X454799Y385803D01*
X454852Y385731D01*
X454901Y385657D01*
X454947Y385580D01*
X454990Y385502D01*
X455029Y385421D01*
X455065Y385339D01*
X455097Y385256D01*
X455125Y385172D01*
X455150Y385086D01*
X455171Y384999D01*
X455188Y384911D01*
X455202Y384823D01*
X455211Y384734D01*
X455217Y384645D01*
X455219Y384556D01*
X454203Y386334D02*
X451409Y387858D01*
D10*
X387350Y501650D02*
X387350Y514350D01*
X387350Y501650D02*
X381000Y495300D01*
X368300Y495300D01*
X361950Y501650D01*
X381000Y495300D02*
X387350Y488950D01*
X387350Y476250D01*
X381000Y469900D01*
X368300Y469900D01*
X361950Y476250D01*
X361950Y488950D01*
X368300Y495300D01*
X368300Y520700D02*
X381000Y520700D01*
X387350Y514350D01*
X368300Y520700D02*
X361950Y514350D01*
X361950Y501650D01*
X381000Y469900D02*
X387350Y463550D01*
X387350Y450850D01*
X381000Y444500D01*
X368300Y444500D01*
X361950Y450850D01*
X361950Y463550D01*
X368300Y469900D01*
D12*
X366014Y442722D02*
X366014Y433578D01*
X366014Y442722D02*
X368554Y442722D01*
X368654Y442720D01*
X368753Y442714D01*
X368853Y442704D01*
X368951Y442691D01*
X369050Y442673D01*
X369147Y442652D01*
X369243Y442627D01*
X369339Y442598D01*
X369433Y442565D01*
X369526Y442529D01*
X369617Y442489D01*
X369707Y442445D01*
X369795Y442398D01*
X369881Y442348D01*
X369965Y442294D01*
X370047Y442237D01*
X370126Y442177D01*
X370204Y442113D01*
X370278Y442047D01*
X370350Y441978D01*
X370419Y441906D01*
X370485Y441832D01*
X370549Y441754D01*
X370609Y441675D01*
X370666Y441593D01*
X370720Y441509D01*
X370770Y441423D01*
X370817Y441335D01*
X370861Y441245D01*
X370901Y441154D01*
X370937Y441061D01*
X370970Y440967D01*
X370999Y440871D01*
X371024Y440775D01*
X371045Y440678D01*
X371063Y440579D01*
X371076Y440481D01*
X371086Y440381D01*
X371092Y440282D01*
X371094Y440182D01*
X371092Y440082D01*
X371086Y439983D01*
X371076Y439883D01*
X371063Y439785D01*
X371045Y439686D01*
X371024Y439589D01*
X370999Y439493D01*
X370970Y439397D01*
X370937Y439303D01*
X370901Y439210D01*
X370861Y439119D01*
X370817Y439029D01*
X370770Y438941D01*
X370720Y438855D01*
X370666Y438771D01*
X370609Y438689D01*
X370549Y438610D01*
X370485Y438532D01*
X370419Y438458D01*
X370350Y438386D01*
X370278Y438317D01*
X370204Y438251D01*
X370126Y438187D01*
X370047Y438127D01*
X369965Y438070D01*
X369881Y438016D01*
X369795Y437966D01*
X369707Y437919D01*
X369617Y437875D01*
X369526Y437835D01*
X369433Y437799D01*
X369339Y437766D01*
X369243Y437737D01*
X369147Y437712D01*
X369050Y437691D01*
X368951Y437673D01*
X368853Y437660D01*
X368753Y437650D01*
X368654Y437644D01*
X368554Y437642D01*
X366014Y437642D01*
X375412Y433578D02*
X375412Y442722D01*
X374396Y433578D02*
X376428Y433578D01*
X376428Y442722D02*
X374396Y442722D01*
X379679Y433578D02*
X385775Y442722D01*
X379679Y442722D02*
X385775Y433578D01*
D10*
X527050Y393700D02*
X539750Y393700D01*
X527050Y393700D02*
X520700Y400050D01*
X520700Y412750D01*
X527050Y419100D01*
X546100Y412750D02*
X546100Y400050D01*
X539750Y393700D01*
X546100Y412750D02*
X539750Y419100D01*
X527050Y419100D01*
X520700Y400050D02*
X514350Y393700D01*
X501650Y393700D01*
X495300Y400050D01*
X495300Y412750D01*
X501650Y419100D01*
X514350Y419100D01*
X520700Y412750D01*
D12*
X509778Y387858D02*
X507238Y387858D01*
X509778Y387858D02*
X509878Y387856D01*
X509977Y387850D01*
X510077Y387840D01*
X510175Y387827D01*
X510274Y387809D01*
X510371Y387788D01*
X510467Y387763D01*
X510563Y387734D01*
X510657Y387701D01*
X510750Y387665D01*
X510841Y387625D01*
X510931Y387581D01*
X511019Y387534D01*
X511105Y387484D01*
X511189Y387430D01*
X511271Y387373D01*
X511350Y387313D01*
X511428Y387249D01*
X511502Y387183D01*
X511574Y387114D01*
X511643Y387042D01*
X511709Y386968D01*
X511773Y386890D01*
X511833Y386811D01*
X511890Y386729D01*
X511944Y386645D01*
X511994Y386559D01*
X512041Y386471D01*
X512085Y386381D01*
X512125Y386290D01*
X512161Y386197D01*
X512194Y386103D01*
X512223Y386007D01*
X512248Y385911D01*
X512269Y385814D01*
X512287Y385715D01*
X512300Y385617D01*
X512310Y385517D01*
X512316Y385418D01*
X512318Y385318D01*
X512316Y385218D01*
X512310Y385119D01*
X512300Y385019D01*
X512287Y384921D01*
X512269Y384822D01*
X512248Y384725D01*
X512223Y384629D01*
X512194Y384533D01*
X512161Y384439D01*
X512125Y384346D01*
X512085Y384255D01*
X512041Y384165D01*
X511994Y384077D01*
X511944Y383991D01*
X511890Y383907D01*
X511833Y383825D01*
X511773Y383746D01*
X511709Y383668D01*
X511643Y383594D01*
X511574Y383522D01*
X511502Y383453D01*
X511428Y383387D01*
X511350Y383323D01*
X511271Y383263D01*
X511189Y383206D01*
X511105Y383152D01*
X511019Y383102D01*
X510931Y383055D01*
X510841Y383011D01*
X510750Y382971D01*
X510657Y382935D01*
X510563Y382902D01*
X510467Y382873D01*
X510371Y382848D01*
X510274Y382827D01*
X510175Y382809D01*
X510077Y382796D01*
X509977Y382786D01*
X509878Y382780D01*
X509778Y382778D01*
X507238Y382778D01*
X507238Y391922D01*
X509778Y391922D01*
X509867Y391920D01*
X509955Y391914D01*
X510043Y391905D01*
X510131Y391891D01*
X510218Y391874D01*
X510304Y391853D01*
X510389Y391828D01*
X510473Y391799D01*
X510556Y391767D01*
X510637Y391732D01*
X510716Y391692D01*
X510794Y391650D01*
X510870Y391604D01*
X510944Y391555D01*
X511015Y391502D01*
X511084Y391447D01*
X511151Y391388D01*
X511215Y391327D01*
X511276Y391263D01*
X511335Y391196D01*
X511390Y391127D01*
X511443Y391056D01*
X511492Y390982D01*
X511538Y390906D01*
X511580Y390828D01*
X511620Y390749D01*
X511655Y390668D01*
X511687Y390585D01*
X511716Y390501D01*
X511741Y390416D01*
X511762Y390330D01*
X511779Y390243D01*
X511793Y390155D01*
X511802Y390067D01*
X511808Y389979D01*
X511810Y389890D01*
X511808Y389801D01*
X511802Y389713D01*
X511793Y389625D01*
X511779Y389537D01*
X511762Y389450D01*
X511741Y389364D01*
X511716Y389279D01*
X511687Y389195D01*
X511655Y389112D01*
X511620Y389031D01*
X511580Y388952D01*
X511538Y388874D01*
X511492Y388798D01*
X511443Y388724D01*
X511390Y388653D01*
X511335Y388584D01*
X511276Y388517D01*
X511215Y388453D01*
X511151Y388392D01*
X511084Y388333D01*
X511015Y388278D01*
X510944Y388225D01*
X510870Y388176D01*
X510794Y388130D01*
X510716Y388088D01*
X510637Y388048D01*
X510556Y388013D01*
X510473Y387981D01*
X510389Y387952D01*
X510304Y387927D01*
X510218Y387906D01*
X510131Y387889D01*
X510043Y387875D01*
X509955Y387866D01*
X509867Y387860D01*
X509778Y387858D01*
X515417Y382778D02*
X518465Y391922D01*
X521513Y382778D01*
X520751Y385064D02*
X516179Y385064D01*
X526999Y382778D02*
X526999Y391922D01*
X524459Y391922D02*
X529539Y391922D01*
M02*
